<svg width="24" height="24" viewBox="0 0 24 24" fill="none" xmlns="http://www.w3.org/2000/svg">
<path d="M10.1094 4.26644C10.3466 3.62531 11.2534 3.62531 11.4906 4.26644L13.717 10.283L19.7336 12.5094C20.3747 12.7466 20.3747 13.6534 19.7336 13.8907L13.717 16.117L11.4906 22.1336C11.2534 22.7747 10.3466 22.7747 10.1094 22.1336L7.88302 16.117L1.86641 13.8907C1.22529 13.6534 1.22529 12.7466 1.86641 12.5094L7.88302 10.283L10.1094 4.26644Z" fill="#FDFDFD"/>
<path d="M18.9236 0.746566C19.0185 0.490116 19.3813 0.490116 19.4762 0.746566L20.4963 3.50356L23.2533 4.52375C23.5098 4.61864 23.5098 4.98136 23.2533 5.07625L20.4963 6.09644L19.4762 8.85343C19.3813 9.10988 19.0185 9.10989 18.9236 8.85343L17.9035 6.09644L15.1465 5.07625C14.89 4.98136 14.89 4.61864 15.1465 4.52375L17.9035 3.50356L18.9236 0.746566Z" fill="#FDFDFD"/>
</svg>
