<svg width="20" height="80" viewBox="0 0 20 80" fill="none" xmlns="http://www.w3.org/2000/svg">
<path fill-rule="evenodd" clip-rule="evenodd" d="M9.49538 78.5207C9.59487 78.8138 9.84272 78.983 10.301 79.0389C10.673 79.1015 12.7233 79.17 14.8873 79.194C17.0479 79.2386 18.9432 79.2174 19.0983 79.1797C19.2362 79.1179 19.4055 78.87 19.4472 78.622C19.4924 78.3533 18.7612 76.5086 17.7891 74.4533C16.8342 72.4222 15.8963 70.5427 15.7279 70.2805C15.4906 69.9218 15.3116 69.8492 15.0392 69.9521C14.8323 70.0448 14.546 70.2305 14.3941 70.375C14.187 70.5952 14.3997 71.2262 15.3133 73.2503C15.99 74.6608 16.5085 75.8745 16.4981 75.9366C16.4876 75.9986 16.2877 76.05 16.0499 76.0737C15.8121 76.0975 15.5293 76.2624 15.4325 76.4587C15.3185 76.6308 15.3077 76.9479 15.3832 77.1306C15.524 77.4306 15.1346 77.4714 12.781 77.4368C10.6618 77.3991 9.9484 77.4704 9.68953 77.7457C9.45829 77.9831 9.39937 78.207 9.49538 78.5207ZM3.6207 0.863663C3.57549 1.13238 3.9296 1.68083 4.76221 2.54359C5.42966 3.25102 6.08687 3.89297 6.21418 4.02067C6.34496 4.12769 6.6585 4.15918 6.90674 4.07341C7.17565 3.99111 7.38969 3.72954 7.44185 3.41948C7.5114 3.00607 7.23979 2.59904 6.10774 1.49461C5.34737 0.70777 4.60748 0.0519115 4.48693 0.0103768C4.38706 -0.0276805 4.16297 0.0408981 3.99045 0.181921C3.81794 0.322944 3.66243 0.615616 3.6207 0.863663ZM0.412591 43.9404C0.172654 45.3666 0.15797 45.9593 0.347096 46.225C0.484642 46.4181 0.729014 46.608 0.873708 46.6324C0.997731 46.6532 1.26317 46.5916 1.4322 46.4713C1.62538 46.3337 1.83325 45.6035 2.05232 44.3012C2.27487 42.9783 2.31738 42.2203 2.18331 42.0064C2.06296 41.8374 1.8151 41.6682 1.63255 41.6162C1.47066 41.5677 1.20523 41.6293 1.03272 41.7703C0.856726 41.932 0.614277 42.7415 0.412591 43.9404ZM1.4641 39.0797C1.43299 39.1382 1.55315 39.4348 1.71117 39.7589C1.99979 40.3176 2.0618 40.328 2.56872 40.0945C3.02733 39.8953 3.21395 39.5441 3.64321 38.256C3.93743 37.3915 4.2214 36.4615 4.26313 36.2134C4.30834 35.9447 4.1847 35.6689 4.00909 35.5756C3.81282 35.4788 3.4821 35.4231 3.28563 35.4538C3.06849 35.4811 2.82701 35.653 2.73023 35.8493C2.63692 36.0249 2.33246 36.8239 2.03496 37.5816C1.73398 38.3599 1.47453 39.0177 1.4641 39.0797ZM0.0227355 48.7848C-0.00856049 48.9709 -0.00991747 49.8634 0.0335464 50.7422C0.0770103 51.6209 0.241017 52.5413 0.392278 52.7793C0.557256 53.0621 0.829255 53.2141 1.15322 53.1836C1.4117 53.1633 1.69453 52.9983 1.78436 52.8434C1.87419 52.6885 1.87573 51.6685 1.80155 50.5932C1.69666 49.3215 1.5255 48.57 1.32247 48.3871C1.09529 48.2213 0.82309 48.1968 0.533509 48.2756C0.285268 48.3614 0.0575089 48.5781 0.0227355 48.7848ZM7.8966 5.77033C7.86182 5.97703 8.17768 6.75286 8.58317 7.50125C9.01281 8.23245 9.37695 8.97389 9.43529 9.13249C9.47296 9.28762 9.63118 9.48428 9.76891 9.54996C9.88251 9.63284 10.1995 9.64366 10.4478 9.55788C10.6925 9.49278 10.9272 9.23469 10.9655 9.00731C11.0037 8.77994 10.8805 8.24907 10.6985 7.8146C10.4959 7.37665 10.0525 6.60063 9.71908 6.05566C9.3615 5.52789 8.95563 5.0345 8.81442 4.98949C8.6732 4.94448 8.42844 5.00958 8.25592 5.1506C8.08341 5.29162 7.93137 5.56362 7.8966 5.77033ZM3.93357 33.1185C3.92314 33.1805 3.99172 33.4046 4.09817 33.6563C4.25619 33.9804 4.45245 34.0772 4.90392 34.0469C5.4174 34.027 5.57968 33.8205 6.30548 32.4122C6.77549 31.5135 7.20745 30.7147 7.26966 30.5976C7.32838 30.5012 7.27024 30.2151 7.13617 30.0013C6.98491 29.7633 6.744 29.5527 6.61998 29.5318C6.47529 29.5075 6.21333 29.5484 6.0754 29.6103C5.91679 29.6686 5.38148 30.45 4.86665 31.3624C4.37249 32.2783 3.944 33.0565 3.93357 33.1185ZM0.829447 55.361C0.791196 55.5883 0.975878 56.5121 1.22605 57.4257C1.47622 58.3393 1.84017 59.2082 2.02949 59.3463C2.20161 59.4603 2.48057 59.571 2.63222 59.554C2.7632 59.5335 3.00815 59.3409 3.17043 59.1344C3.39143 58.8315 3.32324 58.3524 2.87409 56.8527C2.54491 55.7771 2.1259 54.8564 1.94682 54.7837C1.75054 54.687 1.43006 54.6968 1.24383 54.793C1.0576 54.8892 0.864221 55.1543 0.829447 55.361ZM7.24339 27.4686C7.20186 27.5892 7.30134 27.8822 7.43889 28.0754C7.57644 28.2686 7.84148 28.462 8.00685 28.4898C8.17221 28.5176 8.4757 28.3561 8.68279 28.1359C8.89337 27.895 9.36666 27.1031 9.75033 26.3387C10.1305 25.595 10.4213 24.7511 10.401 24.4927C10.3774 24.1274 10.195 23.9479 9.76444 23.8542C9.19262 23.7155 9.14084 23.7705 8.23887 25.468C7.71708 26.4218 7.26773 27.3239 7.24339 27.4686ZM10.6243 13.5624C10.7881 14.6102 11.0451 15.6099 11.193 15.7411C11.3961 15.924 11.6269 15.9416 11.8993 15.8386C12.1062 15.7459 12.3479 15.4465 12.4344 15.1847C12.521 14.923 12.474 14.0648 12.3719 13.2825C12.249 12.4966 12.0263 11.6727 11.875 11.4347C11.7031 11.1932 11.4828 10.9861 11.3416 10.9411C11.2176 10.9202 10.9383 11.0645 10.7346 11.2641C10.3999 11.6116 10.3788 11.8631 10.6243 13.5624ZM2.98072 61.5256C2.91832 61.7702 3.20654 62.5839 3.58788 63.3495C3.96922 64.1151 4.39191 64.8876 4.53293 65.0601C4.67396 65.2326 5.01145 65.3744 5.30431 65.4024C5.66267 65.4202 5.87652 65.2861 5.97002 64.983C6.04285 64.6765 5.77181 63.8869 5.17392 62.7661C4.57949 61.6246 4.09461 60.9691 3.8087 60.8997C3.5848 60.8408 3.30566 60.8576 3.22626 60.9505C3.12619 61.04 3.01897 61.2983 2.98072 61.5256ZM10.0376 20.9669C9.95087 21.3561 9.97772 21.8283 10.0981 21.9973C10.2184 22.1664 10.5559 22.3082 10.8488 22.3362C11.2485 22.3609 11.4245 22.1992 11.6598 21.5586C11.8396 21.1212 12.0444 20.1567 12.1454 19.4297C12.271 18.4306 12.2337 18.0205 11.9928 17.8099C11.7519 17.5993 11.5452 17.5645 11.2693 17.6882C10.9728 17.8083 10.7551 18.2181 10.5298 19.0517C10.3566 19.7027 10.1243 20.5776 10.0376 20.9669ZM6.28027 67.182C6.23506 67.4508 6.65427 68.244 7.41772 69.2651C8.07454 70.1621 8.67302 70.9004 8.73503 70.9109C8.79704 70.9213 9.03833 70.8769 9.28657 70.7911C9.53133 70.726 9.76953 70.4472 9.81126 70.1992C9.88757 69.8719 9.52323 69.258 8.65989 68.1988C7.99612 67.3432 7.27014 66.6046 7.06691 66.5492C6.86368 66.4937 6.60521 66.514 6.52581 66.6069C6.42574 66.6964 6.31852 66.9547 6.28027 67.182ZM10.4244 72.6192C10.4758 72.8191 11.1191 73.5438 11.852 74.241C12.5678 74.914 13.3594 75.5148 13.5868 75.5531C13.8142 75.5913 14.1142 75.4505 14.2765 75.244C14.4387 75.0375 14.5322 74.7344 14.4911 74.5999C14.4741 74.4483 13.8136 73.6995 13.0221 72.9712C12.2341 72.2222 11.4908 71.587 11.3496 71.542C11.229 71.5005 10.929 71.6413 10.7219 71.8615C10.5148 72.0818 10.3937 72.4227 10.4244 72.6192Z" fill="#FDFDFD"/>
</svg>
