<svg width="24" height="24" viewBox="0 0 24 24" fill="none" xmlns="http://www.w3.org/2000/svg">
<path d="M6.01459 14.25C6.56687 14.25 7.01459 14.6977 7.01459 15.25C7.01459 15.8023 6.56687 16.25 6.01459 16.25C5.4623 16.25 5.01459 15.8023 5.01459 15.25C5.01459 14.6977 5.4623 14.25 6.01459 14.25Z" fill="#1D1D1D"/>
<path d="M13.5146 14.25C14.0669 14.25 14.5146 14.6977 14.5146 15.25C14.5146 15.8023 14.0669 16.25 13.5146 16.25C12.9623 16.25 12.5146 15.8023 12.5146 15.25C12.5146 14.6977 12.9623 14.25 13.5146 14.25Z" fill="#1D1D1D"/>
<path fill-rule="evenodd" clip-rule="evenodd" d="M9.76459 2C11.9783 2 13.7275 2.23652 14.956 2.48535C16.5654 2.81134 17.5146 4.25969 17.5146 5.78125V13.6504H18.9745L20.4824 11.7529C20.6589 11.5312 20.9452 11.4283 21.2226 11.4863C21.5003 11.5445 21.7213 11.7541 21.7939 12.0283L22.7392 15.6025C22.8155 15.8911 22.7136 16.1977 22.4794 16.3828L20.621 17.8516L21.3554 20.2832C21.4749 20.6797 21.25 21.0981 20.8535 21.2178C20.457 21.3373 20.0387 21.1131 19.9189 20.7168L19.038 17.7969C18.9491 17.5021 19.0495 17.1832 19.291 16.9922L21.164 15.5107L20.7265 13.8564L19.9238 14.8672C19.7815 15.0462 19.5646 15.1504 19.3359 15.1504H17.5146V16.25C17.5146 17.5084 16.6683 18.5658 15.5146 18.8926V21.0576C15.5145 21.6098 15.0668 22.0576 14.5146 22.0576C13.9623 22.0576 13.5147 21.6098 13.5146 21.0576V19H6.01459V21.0576C6.01452 21.6098 5.56683 22.0576 5.01459 22.0576C4.46234 22.0576 4.01465 21.6098 4.01459 21.0576V18.8926C2.86086 18.5658 2.01459 17.5084 2.01459 16.25V5.78125C2.01459 4.25969 2.9638 2.81134 4.57318 2.48535C5.80168 2.23652 7.55085 2 9.76459 2ZM3.51459 16.25C3.51459 16.9404 4.07423 17.5 4.76459 17.5H14.7646C15.4549 17.5 16.0146 16.9404 16.0146 16.25V13H3.51459V16.25ZM3.51459 11.5H16.0146V7H3.51459V11.5ZM9.76459 3.5C7.65808 3.5 6.00876 3.72465 4.87103 3.95508C4.15773 4.09956 3.63369 4.70443 3.53314 5.5H15.996C15.8955 4.70443 15.3714 4.09956 14.6581 3.95508C13.5204 3.72465 11.8711 3.5 9.76459 3.5Z" fill="#1D1D1D"/>
<path d="M19.9628 8.34375C20.6963 8.34375 21.291 8.93842 21.291 9.67188C21.2909 10.4053 20.6963 11 19.9628 11C19.2296 10.9998 18.6357 10.4052 18.6357 9.67188C18.6357 8.93855 19.2296 8.34397 19.9628 8.34375Z" fill="#1D1D1D"/>
</svg>
