<svg width="24" height="24" viewBox="0 0 24 24" fill="none" xmlns="http://www.w3.org/2000/svg">
<path d="M4.59955 16.8007C5.48322 16.8007 6.20013 17.5166 6.20013 18.4003C6.2001 19.2839 5.4832 19.9999 4.59955 19.9999C3.71609 19.9996 2.99997 19.2838 2.99994 18.4003C2.99994 17.5167 3.71607 16.8009 4.59955 16.8007Z" fill="#1D1D1D"/>
<path d="M19.2499 17.7499C19.6641 17.7499 19.9998 18.0858 19.9999 18.4999C19.9999 18.9141 19.6642 19.2499 19.2499 19.2499H9.99994C9.58576 19.2498 9.24994 18.9141 9.24994 18.4999C9.25007 18.0858 9.58584 17.7499 9.99994 17.7499H19.2499Z" fill="#1D1D1D"/>
<path d="M4.59955 10.4003C5.48316 10.4003 6.20004 11.1163 6.20013 11.9999C6.20013 12.8836 5.48322 13.6005 4.59955 13.6005C3.71607 13.6002 2.99994 12.8834 2.99994 11.9999C3.00004 11.1164 3.71613 10.4005 4.59955 10.4003Z" fill="#1D1D1D"/>
<path d="M19.2499 11.2499C19.6641 11.2499 19.9998 11.5858 19.9999 11.9999C19.9999 12.4141 19.6642 12.7499 19.2499 12.7499H9.99994C9.58576 12.7498 9.24994 12.4141 9.24994 11.9999C9.25007 11.5858 9.58584 11.2499 9.99994 11.2499H19.2499Z" fill="#1D1D1D"/>
<path d="M4.59955 3.99988C5.48308 3.99988 6.1999 4.71601 6.20013 5.59949C6.20013 6.48316 5.48322 7.20007 4.59955 7.20007C3.71607 7.19984 2.99994 6.48302 2.99994 5.59949C3.00017 4.71615 3.71621 4.00011 4.59955 3.99988Z" fill="#1D1D1D"/>
<path d="M19.2499 4.74988C19.6641 4.74988 19.9998 5.08578 19.9999 5.49988C19.9999 5.91409 19.6642 6.24988 19.2499 6.24988H9.99994C9.58576 6.24984 9.24994 5.91407 9.24994 5.49988C9.25007 5.0858 9.58584 4.74992 9.99994 4.74988H19.2499Z" fill="#1D1D1D"/>
</svg>
