<svg width="24" height="24" viewBox="0 0 24 24" fill="none" xmlns="http://www.w3.org/2000/svg">
<path d="M16.0005 18.9999H14.5005V15.9999H16.0005V18.9999Z" fill="#1D1D1D"/>
<path d="M19.0005 18.9999H17.5005V15.9999H19.0005V18.9999Z" fill="#1D1D1D"/>
<path d="M16.0005 14.4999H14.5005V11.4999H16.0005V14.4999Z" fill="#1D1D1D"/>
<path d="M19.0005 14.4999H17.5005V11.4999H19.0005V14.4999Z" fill="#1D1D1D"/>
<path fill-rule="evenodd" clip-rule="evenodd" d="M20.5005 8.49988C20.898 8.50046 21.279 8.65922 21.5601 8.94031C21.8411 9.22146 22 9.60233 22.0005 9.99988V20.9999C22.0005 21.552 21.5525 21.9996 21.0005 21.9999H8.00049C7.4482 21.9999 7.00049 21.5522 7.00049 20.9999V14.4999C7.00099 14.1023 7.15887 13.7215 7.43994 13.4403C7.72115 13.1591 8.1028 13.0003 8.50049 12.9999H11.5005V9.99988C11.501 9.60233 11.6589 9.22146 11.9399 8.94031C12.2211 8.6591 12.6028 8.50033 13.0005 8.49988H20.5005ZM8.50049 20.4999H11.5005V14.4999H8.50049V20.4999ZM13.0005 20.4999H20.5005V9.99988H13.0005V20.4999Z" fill="#1D1D1D"/>
<path d="M10.7495 2.00085C13.6334 2.00085 16.0207 4.12327 16.436 6.89148L14.9526 7.11414C14.6458 5.06923 12.8799 3.50085 10.7495 3.50085C8.4023 3.50085 6.49951 5.40364 6.49951 7.75085C6.49951 8.16507 6.16373 8.50085 5.74951 8.50085C4.50687 8.50085 3.49951 9.50821 3.49951 10.7509C3.49951 11.9935 4.50687 13.0009 5.74951 13.0009V14.5009C3.67844 14.5009 1.99951 12.8219 1.99951 10.7509C1.99951 8.92253 3.30799 7.40007 5.03955 7.06824C5.37724 4.21449 7.80495 2.00085 10.7495 2.00085Z" fill="#1D1D1D"/>
</svg>
