<svg width="24" height="24" viewBox="0 0 24 24" fill="none" xmlns="http://www.w3.org/2000/svg">
<path d="M13.6448 2C13.926 2.00004 14.2044 2.0555 14.4641 2.16309C14.565 2.2049 14.6632 2.25414 14.7561 2.31055C15.0481 2.48781 15.2467 2.77739 15.4192 3.07227L18.1038 7.66211C18.3576 7.99206 18.7142 8.64761 18.8938 9.08105C19.0734 9.51454 19.1646 9.98001 19.1634 10.4492V14.8564C19.1634 15.054 19.083 15.233 18.9534 15.3623C18.9474 15.3749 18.9425 15.388 18.9358 15.4004L16.8616 19.2012L18.0081 20.0625L20.3987 15.6826C20.597 15.3191 21.0527 15.1846 21.4163 15.3828C21.7798 15.5811 21.9133 16.0368 21.7151 16.4004L18.7151 21.9014C18.5167 22.2647 18.061 22.3983 17.6975 22.2002C17.3857 22.0301 17.2435 21.671 17.3343 21.3428L16.1702 20.4688L15.9348 20.9014C15.7363 21.2646 15.2807 21.3985 14.9173 21.2002C14.5538 21.0018 14.4201 20.5462 14.6184 20.1826L14.7971 19.8545C13.8796 19.8327 13.0042 19.46 12.3538 18.8096C12.2303 18.6861 12.1169 18.5544 12.0139 18.416C11.9111 18.5542 11.7983 18.6863 11.6751 18.8096C11.023 19.4616 10.1449 19.8345 9.22488 19.8545L9.38113 20.1406C9.57949 20.5042 9.44588 20.9598 9.0823 21.1582C8.71871 21.3566 8.26313 21.2229 8.06472 20.8594L7.85378 20.4727L6.67507 21.3564C6.73648 21.6689 6.59727 21.9974 6.303 22.1582C5.93949 22.3565 5.48389 22.2228 5.28542 21.8594L2.28445 16.3594C2.08613 15.9959 2.2199 15.5403 2.58327 15.3418C2.9468 15.1435 3.4024 15.2772 3.60085 15.6406L6.01492 20.0654L7.16238 19.2051L5.06374 15.3594C5.05919 15.351 5.05525 15.3424 5.05105 15.334C4.93671 15.2073 4.8655 15.0405 4.8655 14.8564V10.4492C4.86421 9.98001 4.95642 9.51454 5.13601 9.08105C5.3156 8.64766 5.67134 7.99204 5.92507 7.66211L8.60964 3.07227C8.78215 2.77732 8.98159 2.4878 9.2737 2.31055C9.36658 2.25421 9.46391 2.20486 9.56472 2.16309C9.82465 2.05539 10.1037 2 10.385 2C10.6662 2.00005 10.9446 2.05548 11.2044 2.16309C11.4643 2.2708 11.7008 2.42891 11.8997 2.62793C11.94 2.668 11.9771 2.71088 12.0139 2.75391C12.0509 2.71071 12.0887 2.66815 12.1292 2.62793C12.3281 2.42891 12.5645 2.2708 12.8245 2.16309C13.0844 2.05537 13.3634 2 13.6448 2ZM10.2444 3.44238C10.1931 3.45264 10.1433 3.46835 10.096 3.48926C9.93601 3.55999 9.83576 3.71473 9.74831 3.86621L6.96609 8.68555C6.77157 8.97309 6.56411 9.3678 6.45632 9.62793C6.34856 9.88806 6.29339 10.1677 6.29421 10.4492V14.5146C6.32667 14.553 6.35613 14.5948 6.38113 14.6406L8.45046 18.4346C8.47775 18.4323 8.50495 18.4277 8.53249 18.4277H9.15163C9.71951 18.427 10.2637 18.2013 10.6653 17.7998C11.067 17.3981 11.2936 16.8533 11.2942 16.2852V11.2852C11.2941 11.0959 11.219 10.9141 11.0852 10.7803C10.9513 10.6463 10.7688 10.5713 10.5794 10.5713C10.3901 10.5714 10.2083 10.6464 10.0745 10.7803C9.94064 10.9141 9.86558 11.0959 9.8655 11.2852V13.4287C9.86525 13.8228 9.54578 14.1424 9.15163 14.1426C8.75731 14.1426 8.43704 13.823 8.43679 13.4287V10.6221C8.43571 10.2467 8.58022 9.97473 8.7239 9.62793C8.86758 9.28115 9.03445 8.94336 9.21218 8.56055L10.8889 4.75488C10.9434 4.62191 11.0093 4.50258 11.0452 4.41602C11.081 4.32943 11.0992 4.23629 11.0989 4.14258V4.14063C11.0984 3.99959 11.0565 3.8612 10.9778 3.74414C10.8991 3.62714 10.7869 3.53615 10.6565 3.48242C10.5262 3.42878 10.3826 3.41478 10.2444 3.44238ZM13.7844 3.44238C13.6462 3.41476 13.5027 3.4287 13.3723 3.48242C13.2421 3.5361 13.1307 3.62729 13.052 3.74414C12.9734 3.8612 12.9305 3.99959 12.93 4.14063V4.14258C12.9297 4.23638 12.9487 4.32936 12.9846 4.41602C13.0205 4.50263 13.0864 4.62181 13.1409 4.75488L14.8176 8.56055C14.9954 8.94329 15.1613 9.2812 15.305 9.62793C15.4486 9.97473 15.5931 10.2467 15.5921 10.6221V13.4287C15.5918 13.8229 15.2724 14.1424 14.8782 14.1426C14.4839 14.1426 14.1636 13.823 14.1634 13.4287V11.2852C14.1633 11.0958 14.0882 10.9142 13.9544 10.7803C13.8205 10.6464 13.6388 10.5713 13.4495 10.5713C13.2601 10.5713 13.0785 10.6465 12.9446 10.7803C12.8107 10.9142 12.7347 11.0958 12.7346 11.2852V16.2852C12.7353 16.8533 12.9618 17.3981 13.3635 17.7998C13.7653 18.2015 14.3101 18.4271 14.8782 18.4277H15.4964C15.5215 18.4277 15.5466 18.4317 15.5716 18.4336L17.6184 14.6826C17.6503 14.6243 17.691 14.5734 17.7346 14.5273V10.4492C17.7355 10.1677 17.6803 9.88806 17.5725 9.62793C17.4648 9.36786 17.2582 8.97304 17.0637 8.68555L14.2815 3.86621C14.1941 3.71471 14.0929 3.56 13.9329 3.48926C13.8855 3.46836 13.8357 3.45263 13.7844 3.44238ZM12.0139 5.87207L10.7366 9.1582C11.2127 9.19236 11.6617 9.38526 12.0139 9.70215C12.3663 9.38489 12.8159 9.19238 13.2923 9.1582L12.0139 5.87207Z" fill="#1D1D1D"/>
</svg>
