<svg width="24" height="24" viewBox="0 0 24 24" fill="none" xmlns="http://www.w3.org/2000/svg">
<path d="M6.01331 14.25C6.56559 14.25 7.01331 14.6977 7.01331 15.25C7.01331 15.8023 6.56559 16.25 6.01331 16.25C5.46102 16.25 5.01331 15.8023 5.01331 15.25C5.01331 14.6977 5.46102 14.25 6.01331 14.25Z" fill="#1D1D1D"/>
<path d="M13.5133 14.25C14.0656 14.25 14.5133 14.6977 14.5133 15.25C14.5133 15.8023 14.0656 16.25 13.5133 16.25C12.961 16.25 12.5133 15.8023 12.5133 15.25C12.5133 14.6977 12.961 14.25 13.5133 14.25Z" fill="#1D1D1D"/>
<path fill-rule="evenodd" clip-rule="evenodd" d="M9.76331 2C11.977 2 13.7262 2.23652 14.9547 2.48535C16.5641 2.81134 17.5133 4.25969 17.5133 5.78125V16.25C17.5133 17.5084 16.667 18.5658 15.5133 18.8926V21C15.5133 21.5523 15.0656 22 14.5133 22C13.961 22 13.5133 21.5523 13.5133 21V19H6.01331V21C6.01331 21.5523 5.56559 22 5.01331 22C4.46102 22 4.01331 21.5523 4.01331 21V18.8926C2.85958 18.5658 2.01331 17.5084 2.01331 16.25V5.78125C2.01331 4.25969 2.96252 2.81134 4.5719 2.48535C5.8004 2.23652 7.54957 2 9.76331 2ZM3.51331 16.25C3.51331 16.9404 4.07295 17.5 4.76331 17.5H14.7633C15.4537 17.5 16.0133 16.9404 16.0133 16.25V13H3.51331V16.25ZM3.51331 11.5H16.0133V7H3.51331V11.5ZM9.76331 3.5C7.65679 3.5 6.00748 3.72465 4.86975 3.95508C4.15645 4.09956 3.6324 4.70443 3.53186 5.5H15.9948C15.8942 4.70443 15.3702 4.09956 14.6569 3.95508C13.5191 3.72465 11.8698 3.5 9.76331 3.5Z" fill="#1D1D1D"/>
<path d="M19.2281 11.4863C19.5058 11.4282 19.7929 11.5318 19.9694 11.7539L21.4772 13.6504H23.0133C23.4274 13.6504 23.7631 13.9863 23.7633 14.4004C23.7633 14.8146 23.4275 15.1504 23.0133 15.1504H21.1149C20.8863 15.1503 20.6702 15.0462 20.528 14.8672L19.7252 13.8564L19.2877 15.5107L21.1608 16.9922C21.402 17.1832 21.5026 17.5023 21.4137 17.7969L20.5328 20.7168C20.4132 21.1133 19.9938 21.3374 19.5973 21.2178C19.201 21.098 18.9767 20.6796 19.0963 20.2832L19.8297 17.8516L17.9713 16.3828C17.7372 16.1977 17.6352 15.8911 17.7115 15.6025L18.6569 12.0283C18.7294 11.7541 18.9506 11.5446 19.2281 11.4863Z" fill="#1D1D1D"/>
<path d="M20.4879 8.34375C21.2214 8.34375 21.816 8.93844 21.816 9.67188C21.816 10.4053 21.2214 11 20.4879 11C19.7545 11 19.1598 10.4053 19.1598 9.67188C19.1598 8.93846 19.7545 8.34379 20.4879 8.34375Z" fill="#1D1D1D"/>
</svg>
