<svg width="24" height="24" viewBox="0 0 24 24" fill="none" xmlns="http://www.w3.org/2000/svg">
<path d="M21.2501 20.4502C21.6919 20.4502 22.0499 20.8082 22.0499 21.25C22.0499 21.6918 21.6919 22.0498 21.2501 22.0498H2.75012C2.30829 22.0498 1.95032 21.6918 1.95032 21.25C1.95032 20.8082 2.30829 20.4502 2.75012 20.4502H21.2501ZM14.215 2.91504C14.8345 2.29551 15.7663 2.29551 16.3859 2.91504L19.0851 5.61426C19.7046 6.23378 19.7046 7.16563 19.0851 7.78516L8.12805 18.7422C7.93114 18.9391 7.66433 19.0498 7.38586 19.0498H4.00012C3.42022 19.0498 2.95032 18.5799 2.95032 18V14.6143C2.95032 14.3358 3.06103 14.069 3.25793 13.8721L14.215 2.91504ZM4.54993 14.8203V17.4502H7.17981L14.63 10L12.0001 7.37012L4.54993 14.8203ZM13.1202 6.25L15.7501 8.87988L17.9298 6.7002L15.2999 4.07031L13.1202 6.25Z" fill="#1D1D1D" stroke="#1D1D1D" stroke-width="0.1"/>
</svg>
