<svg width="16" height="16" viewBox="0 0 16 16" fill="none" xmlns="http://www.w3.org/2000/svg">
<path fill-rule="evenodd" clip-rule="evenodd" d="M8.00003 13.6689C11.1308 13.6689 13.6688 11.1309 13.6688 8.00007C13.6688 4.86929 11.1308 2.33129 8.00003 2.33129C4.86924 2.33129 2.33124 4.86929 2.33124 8.00007C2.33124 11.1309 4.86924 13.6689 8.00003 13.6689ZM14.6688 8.00007C14.6688 11.6831 11.6831 14.6689 8.00003 14.6689C4.31696 14.6689 1.33124 11.6831 1.33124 8.00007C1.33124 4.317 4.31696 1.33129 8.00003 1.33129C11.6831 1.33129 14.6688 4.31701 14.6688 8.00007Z" fill="#FDFDFD"/>
<path fill-rule="evenodd" clip-rule="evenodd" d="M9.48178 12.159C9.94342 11.1203 10.2417 9.65032 10.2417 8.00007C10.2417 6.34982 9.94342 4.87984 9.48178 3.84115C9.25068 3.32118 8.98845 2.93134 8.72252 2.67826C8.45917 2.42763 8.21588 2.33129 8.00003 2.33129C7.78417 2.33129 7.54089 2.42763 7.27753 2.67826C7.0116 2.93134 6.74937 3.32118 6.51827 3.84115C6.05663 4.87984 5.75835 6.34982 5.75834 8.00007C5.75834 9.65032 6.05663 11.1203 6.51827 12.159C6.74937 12.679 7.0116 13.0688 7.27753 13.3219C7.54088 13.5725 7.78417 13.6689 8.00003 13.6689C8.21588 13.6689 8.45917 13.5725 8.72252 13.3219C8.98845 13.0688 9.25068 12.679 9.48178 12.159ZM9.4119 14.0463C9.01924 14.42 8.54126 14.6689 8.00003 14.6689C7.45879 14.6689 6.98081 14.42 6.58815 14.0463C6.19806 13.675 5.86951 13.1615 5.60446 12.5651C5.07381 11.3712 4.75834 9.75675 4.75834 8.00007C4.75835 6.2434 5.07381 4.62898 5.60446 3.43501C5.86951 2.83866 6.19806 2.3251 6.58815 1.95387C6.98082 1.58018 7.45879 1.33129 8.00003 1.33129C8.54126 1.33129 9.01924 1.58018 9.41191 1.95387C9.802 2.3251 10.1305 2.83866 10.3956 3.43501C10.9262 4.62899 11.2417 6.2434 11.2417 8.00007C11.2417 9.75675 10.9262 11.3712 10.3956 12.5651C10.1305 13.1615 9.80199 13.675 9.4119 14.0463Z" fill="#FDFDFD"/>
<path fill-rule="evenodd" clip-rule="evenodd" d="M1.83124 7.50062L14.1688 7.50062L14.1688 8.50062L1.83124 8.50062L1.83124 7.50062Z" fill="#FDFDFD"/>
</svg>
