<svg width="24" height="24" viewBox="0 0 24 24" fill="none" xmlns="http://www.w3.org/2000/svg">
<path d="M12.0439 14.1104C12.4957 14.1104 12.8621 14.4761 12.8623 14.9277C12.8623 15.3796 12.4958 15.7461 12.0439 15.7461C11.5922 15.746 11.2256 15.3795 11.2256 14.9277C11.2258 14.4761 11.5923 14.1105 12.0439 14.1104Z" fill="#1D1D1D"/>
<path d="M12.4531 5.99609C13.997 5.99609 15.249 7.2481 15.249 8.79199C15.2489 10.2204 14.177 11.3983 12.7939 11.5664V12.2441C12.7939 12.6584 12.4582 12.9941 12.0439 12.9941C11.6298 12.994 11.2939 12.6583 11.2939 12.2441V10.8369C11.2941 10.423 11.63 10.087 12.0439 10.0869H12.4531C13.1685 10.0869 13.7489 9.50738 13.749 8.79199C13.749 8.07653 13.1686 7.49609 12.4531 7.49609H11.6348C10.9195 7.49628 10.3398 8.07664 10.3398 8.79199V8.99219C10.3398 9.40634 10.004 9.74208 9.58984 9.74219C9.17563 9.74219 8.83984 9.4064 8.83984 8.99219V8.79199C8.83984 7.24822 10.091 5.99628 11.6348 5.99609H12.4531Z" fill="#1D1D1D"/>
<path fill-rule="evenodd" clip-rule="evenodd" d="M19.25 3C20.7687 3.00011 22 4.23129 22 5.75V14.8828C21.9999 16.4014 20.7686 17.6327 19.25 17.6328H14.7695L12.6113 20.6797C12.4707 20.8782 12.2423 20.9961 11.999 20.9961C11.7559 20.996 11.5282 20.8781 11.3877 20.6797L9.22852 17.6328H4.74902C3.23032 17.6328 1.99914 16.4015 1.99902 14.8828V5.75C1.99902 4.23122 3.23024 3 4.74902 3H19.25ZM4.74902 4.5C4.05867 4.5 3.49902 5.05964 3.49902 5.75V14.8828C3.49914 15.5731 4.05874 16.1328 4.74902 16.1328H9.61719L9.70703 16.1377C9.91563 16.163 10.1055 16.2755 10.2285 16.4492L11.999 18.9492L13.7705 16.4492C13.9111 16.2508 14.1387 16.1329 14.3818 16.1328H19.25C19.9402 16.1327 20.4999 15.573 20.5 14.8828V5.75C20.5 5.10292 20.0081 4.57102 19.3779 4.50684L19.25 4.5H4.74902Z" fill="#1D1D1D"/>
</svg>
