<svg width="24" height="24" viewBox="0 0 24 24" fill="none" xmlns="http://www.w3.org/2000/svg">
<path fill-rule="evenodd" clip-rule="evenodd" d="M11.9933 1.99854C12.1621 1.99856 12.326 2.05489 12.4591 2.15869L21.6896 10.0884C22.0026 10.3573 22.0479 10.8252 21.7921 11.1489C21.5299 11.4806 21.0485 11.5388 20.715 11.2788L20.0001 10.7212V20.4995C19.9994 20.8971 19.8408 21.2789 19.5597 21.5601C19.2786 21.841 18.8976 21.9987 18.5001 21.9995H5.50012C5.10272 21.9987 4.72164 21.841 4.44055 21.5601C4.15942 21.2789 4.00093 20.8971 4.00012 20.4995V10.7144L3.2843 11.272C2.95081 11.5318 2.47036 11.4737 2.20813 11.1421C1.9523 10.8184 1.99689 10.3505 2.30969 10.0815L11.5275 2.15869C11.6605 2.05494 11.8245 1.99854 11.9933 1.99854ZM5.50012 9.54443V20.4995H9.00012V13.9985C9.00052 13.6008 9.15836 13.2192 9.43957 12.938C9.72079 12.6568 10.1024 12.4989 10.5001 12.4985H13.5001L13.6486 12.5063C13.9915 12.5408 14.3138 12.6923 14.5597 12.938C14.8409 13.2192 14.9997 13.6009 15.0001 13.9985V20.4995H18.5001V9.55225L12.0001 3.99854L5.50012 9.54443ZM10.5001 13.9985V20.4995H13.5001V13.9985H10.5001Z" fill="#D63941"/>
</svg>
