<svg preserveAspectRatio="none" width="100%" height="100%" overflow="visible" style="display: block;" viewBox="0 0 18.25 20" fill="none" xmlns="http://www.w3.org/2000/svg">
<path id="Vector" fill-rule="evenodd" clip-rule="evenodd" d="M10.3354 3.42082C10.5895 3.29378 10.75 3.03408 10.75 2.75C10.75 2.46592 10.5895 2.20622 10.3354 2.07918L6.33541 0.0791804C6.10292 -0.0370653 5.82681 -0.0246423 5.6057 0.112013C5.38459 0.248668 5.25 0.490068 5.25 0.750001V4.73491C5.24978 4.74534 5.24978 4.75579 5.25 4.76625V6.09861L3.76128 7.09109C2.75754 7.76025 2.85117 9.26411 3.93015 9.8036C3.96529 9.82117 3.97953 9.86389 3.96196 9.89903L2.03647 13.75H0V15.25H1V19C1 19.5523 1.44772 20 2 20H10C10.0423 20 10.0841 19.9974 10.125 19.9923C10.1659 19.9974 10.2077 20 10.25 20H16C16.5523 20 17 19.5523 17 19V15.25H18V13.75H14.25V13.2135L17.8354 11.4208C18.0895 11.2938 18.25 11.0341 18.25 10.75C18.25 10.4659 18.0895 10.2062 17.8354 10.0792L13.8354 8.07918C13.6029 7.96293 13.3268 7.97536 13.1057 8.11201C12.8846 8.24867 12.75 8.49007 12.75 8.75V12.7349C12.7498 12.7453 12.7498 12.7558 12.75 12.7662V13.75H9.96353L8.03804 9.89903C8.02047 9.86389 8.03471 9.82117 8.06985 9.8036C9.14883 9.26411 9.24246 7.76025 8.23872 7.09109L6.75 6.09861V5.21353L10.3354 3.42082ZM2.5 15.25L2.5 18.5H9.25V15.25H2.5ZM6.6964 10.5698L8.28647 13.75H3.71353L5.3036 10.5698C5.69165 9.79375 5.37708 8.85001 4.60097 8.46196C4.5836 8.45328 4.57665 8.44482 4.57263 8.4385C4.56738 8.43026 4.56274 8.41799 4.5618 8.40277C4.56085 8.38754 4.56392 8.37479 4.56811 8.36597C4.57132 8.3592 4.57717 8.34994 4.59333 8.33917L6 7.40139L7.40667 8.33917C7.42283 8.34994 7.42868 8.3592 7.43189 8.36597C7.43608 8.37479 7.43915 8.38754 7.4382 8.40277C7.43726 8.41799 7.43262 8.43026 7.42737 8.4385C7.42335 8.44482 7.4164 8.45328 7.39903 8.46196C6.62292 8.85001 6.30835 9.79375 6.6964 10.5698ZM8.32295 2.75L6.75 3.53648V1.96353L8.32295 2.75ZM14.25 11.5365L15.8229 10.75L14.25 9.96353V11.5365ZM15.5 15.25H11V18.5H15.5V15.25Z" fill="var(--fill-0, #1D1D1D)"/>
</svg>
