<svg preserveAspectRatio="none" width="100%" height="100%" overflow="visible" style="display: block;" viewBox="0 0 15.999 20.0166" fill="none" xmlns="http://www.w3.org/2000/svg">
<g id="Vector">
<path d="M11.8877 7.89941C12.1806 7.60674 12.6554 7.60659 12.9482 7.89941C13.241 8.19224 13.2409 8.66708 12.9482 8.95996L7.05762 14.8506C6.76475 15.1435 6.28997 15.1434 5.99707 14.8506L3.05176 11.9053C2.75886 11.6124 2.75886 11.1376 3.05176 10.8447C3.34466 10.552 3.81946 10.5519 4.1123 10.8447L6.52734 13.2598L11.8877 7.89941Z" fill="var(--fill-0, #1D1D1D)"/>
<path fill-rule="evenodd" clip-rule="evenodd" d="M10.0371 0C11.0035 0.000159756 11.7871 0.783601 11.7871 1.75V2.05762H13.749L13.9795 2.06934C15.1139 2.18471 15.999 3.14276 15.999 4.30762V17.7666C15.9988 19.009 14.9915 20.0166 13.749 20.0166H2.25C1.00751 20.0166 0.000240144 19.009 0 17.7666V4.30762C0 3.06498 1.00736 2.05762 2.25 2.05762H4.11523V1.75C4.11523 0.783503 4.89874 0 5.86523 0H10.0371ZM2.25 3.55762C1.83579 3.55762 1.5 3.8934 1.5 4.30762V17.7666C1.50024 18.1806 1.83593 18.5166 2.25 18.5166H13.749C14.1631 18.5166 14.4988 18.1806 14.499 17.7666V4.30762C14.499 3.91942 14.2042 3.6001 13.8262 3.56152L13.749 3.55762H11.7871V4.86426C11.7871 5.27837 11.4512 5.6141 11.0371 5.61426H4.86523C4.45102 5.61426 4.11523 5.27847 4.11523 4.86426V3.55762H2.25ZM5.86523 1.5C5.72716 1.5 5.61523 1.61193 5.61523 1.75V4.11426H10.2871V1.75C10.2871 1.62908 10.201 1.52807 10.0869 1.50488L10.0371 1.5H5.86523Z" fill="var(--fill-0, #1D1D1D)"/>
</g>
</svg>
