<svg preserveAspectRatio="none" width="100%" height="100%" overflow="visible" style="display: block;" viewBox="0 0 18.0039 19.5039" fill="none" xmlns="http://www.w3.org/2000/svg">
<g id="Vector">
<path d="M5.00195 13.5C5.55424 13.5 6.00195 13.9477 6.00195 14.5C6.00195 15.0523 5.55424 15.5 5.00195 15.5C4.44967 15.5 4.00195 15.0523 4.00195 14.5C4.00195 13.9477 4.44967 13.5 5.00195 13.5Z" fill="var(--fill-0, #1D1D1D)"/>
<path d="M9.00195 13.5C9.55424 13.5 10.002 13.9477 10.002 14.5C10.002 15.0523 9.55424 15.5 9.00195 15.5C8.44967 15.5 8.00195 15.0523 8.00195 14.5C8.00195 13.9477 8.44967 13.5 9.00195 13.5Z" fill="var(--fill-0, #1D1D1D)"/>
<path d="M13.002 13.5C13.5542 13.5 14.002 13.9477 14.002 14.5C14.002 15.0523 13.5542 15.5 13.002 15.5C12.4497 15.5 12.002 15.0523 12.002 14.5C12.002 13.9477 12.4497 13.5 13.002 13.5Z" fill="var(--fill-0, #1D1D1D)"/>
<path d="M5.00195 9.5C5.55424 9.5 6.00195 9.94771 6.00195 10.5C6.00195 11.0523 5.55424 11.5 5.00195 11.5C4.44967 11.5 4.00195 11.0523 4.00195 10.5C4.00195 9.94771 4.44967 9.5 5.00195 9.5Z" fill="var(--fill-0, #1D1D1D)"/>
<path d="M9.00195 9.5C9.55424 9.5 10.002 9.94771 10.002 10.5C10.002 11.0523 9.55424 11.5 9.00195 11.5C8.44967 11.5 8.00195 11.0523 8.00195 10.5C8.00195 9.94771 8.44967 9.5 9.00195 9.5Z" fill="var(--fill-0, #1D1D1D)"/>
<path d="M13.002 9.5C13.5542 9.5 14.002 9.94771 14.002 10.5C14.002 11.0523 13.5542 11.5 13.002 11.5C12.4497 11.5 12.002 11.0523 12.002 10.5C12.002 9.94771 12.4497 9.5 13.002 9.5Z" fill="var(--fill-0, #1D1D1D)"/>
<path fill-rule="evenodd" clip-rule="evenodd" d="M13.252 0C13.6662 0 14.002 0.335786 14.002 0.75V1.5H15.7539C16.9965 1.5 18.0039 2.50736 18.0039 3.75V17.2539C18.0039 18.4965 16.9965 19.5039 15.7539 19.5039H2.25C1.00736 19.5039 0 18.4965 0 17.2539V3.75C0 2.50736 1.00736 1.5 2.25 1.5H4.00195V0.75C4.00195 0.335786 4.33774 0 4.75195 0C5.16617 0 5.50195 0.335786 5.50195 0.75V1.5H12.502V0.75C12.502 0.335786 12.8377 0 13.252 0ZM1.5 17.2539C1.5 17.6681 1.83579 18.0039 2.25 18.0039H15.7539C16.1681 18.0039 16.5039 17.6681 16.5039 17.2539V7H1.5V17.2539ZM2.25 3C1.83579 3 1.5 3.33579 1.5 3.75V5.5H16.5039V3.75C16.5039 3.33579 16.1681 3 15.7539 3H14.002V3.75C14.002 4.16421 13.6662 4.5 13.252 4.5C12.8377 4.5 12.502 4.16421 12.502 3.75V3H5.50195V3.75C5.50195 4.16421 5.16617 4.5 4.75195 4.5C4.33774 4.5 4.00195 4.16421 4.00195 3.75V3H2.25Z" fill="var(--fill-0, #1D1D1D)"/>
</g>
</svg>
