<svg width="46" height="26" viewBox="0 0 46 26" fill="none" xmlns="http://www.w3.org/2000/svg">
<path d="M45.5606 16.8282L44.524 18.0964H43.919L44.0894 13.706C44.1037 13.3049 44.0386 12.9048 43.898 12.5293L40.6981 3.89785C40.4821 3.32126 40.0973 2.82444 39.5947 2.47322C39.0922 2.122 38.4955 1.933 37.8839 1.93125H32.3982L31.4027 0.805669C31.2224 0.601645 31.0012 0.438421 30.7537 0.326709C30.5062 0.214997 30.2381 0.157259 29.9669 0.157448H27.2294C26.8282 0.15713 26.437 0.283574 26.1108 0.518858C25.7846 0.754142 25.5397 1.08649 25.4107 1.46924L25.2547 1.93125H0V3.76382H37.8877C38.1285 3.76422 38.3636 3.83818 38.5618 3.97594C38.76 4.11369 38.9121 4.30877 38.9981 4.53543L42.198 13.1658C42.2534 13.3142 42.2785 13.4724 42.2717 13.6308L42.0745 18.735C42.0633 19.0435 41.9336 19.3356 41.7127 19.5496C41.4917 19.7636 41.1969 19.8827 40.8905 19.8817H36.7056C36.4713 19.882 36.2422 19.8123 36.0473 19.6813C35.8523 19.5503 35.7004 19.3639 35.6106 19.1458L34.8171 17.2168C34.6108 16.7125 34.2603 16.2815 33.8101 15.9787C33.3599 15.6758 32.8304 15.5149 32.2891 15.5164H32.2805L7.69299 15.6128C7.18238 15.6126 6.68202 15.7572 6.24918 16.0301C5.81633 16.303 5.46848 16.6932 5.24544 17.156L4.85011 17.9633C4.75174 18.163 4.60018 18.3312 4.41237 18.4491C4.22457 18.567 4.00792 18.6299 3.78667 18.6308H0V20.4634H3.78667C4.27103 20.4613 4.7478 20.342 5.17689 20.1156C5.60597 19.8892 5.97482 19.5622 6.25241 19.1622C5.93674 20.314 6.06492 21.5434 6.61122 22.6039C7.15753 23.6645 8.08156 24.4777 9.19799 24.8804C10.3144 25.2832 11.5407 25.2456 12.6308 24.7754C13.721 24.3052 14.5944 23.437 15.0758 22.3451H12.9365C12.5483 22.785 12.0365 23.0957 11.4691 23.2359C10.9017 23.376 10.3053 23.3389 9.75926 23.1297C9.21317 22.9205 8.74312 22.5489 8.41145 22.0642C8.07978 21.5796 7.90217 21.0048 7.90217 20.4161C7.90217 19.8274 8.07978 19.2526 8.41145 18.7679C8.74312 18.2833 9.21317 17.9118 9.75926 17.7025C10.3053 17.4933 10.9017 17.4563 11.4691 17.5964C12.0365 17.7365 12.5483 18.0471 12.9365 18.487H15.073C14.9022 18.1038 14.6817 17.7452 14.4173 17.4203L16.4035 17.4117C16.1357 17.7385 15.9129 18.1002 15.7411 18.487H17.8804C18.1504 18.1808 18.4817 17.9357 18.8525 17.7678C19.2233 17.5999 19.6252 17.5131 20.0317 17.5131C20.4382 17.5131 20.8401 17.5999 21.211 17.7678C21.5818 17.9357 21.9131 18.1808 22.183 18.487H24.3233C24.1458 18.089 23.9148 17.7175 23.637 17.3828L25.6844 17.374C25.403 17.7108 25.1695 18.0854 24.9905 18.487H27.1336C27.5219 18.0468 28.0338 17.7358 28.6015 17.5955C29.1692 17.4552 29.7657 17.4921 30.3121 17.7014C30.8585 17.9107 31.3288 18.2824 31.6606 18.7673C31.9925 19.2521 32.1702 19.8271 32.1702 20.4161C32.1702 21.005 31.9925 21.5801 31.6606 22.065C31.3288 22.5498 30.8585 22.9215 30.3121 23.1307C29.7657 23.34 29.1692 23.3769 28.6015 23.2366C28.0338 23.0963 27.5219 22.7854 27.1336 22.3451H24.9934C25.4319 23.3356 26.1946 24.1445 27.154 24.6364C28.1134 25.1283 29.2113 25.2735 30.2641 25.0476C31.3169 24.8217 32.2609 24.2385 32.9382 23.3955C33.6155 22.5525 33.9852 21.5007 33.9853 20.4161C33.9852 20.2469 33.9759 20.0779 33.9575 19.9097C34.1916 20.4468 34.5761 20.9035 35.0639 21.2238C35.5516 21.5442 36.1215 21.7143 36.7037 21.7134H40.8905C41.4742 21.715 42.0457 21.5448 42.5346 21.2235C43.0235 20.9022 43.4086 20.4438 43.6424 19.9049H44.5939L45.5625 20.9533C45.5965 20.9898 45.6405 21.0152 45.6889 21.0262C45.7373 21.0372 45.7879 21.0333 45.8341 21.015C45.8803 20.9967 45.92 20.9649 45.948 20.9237C45.9761 20.8824 45.9912 20.8336 45.9914 20.7836L46 16.9902C46.0007 16.9384 45.9854 16.8877 45.9562 16.8451C45.9271 16.8025 45.8855 16.77 45.8373 16.7522C45.7891 16.7345 45.7365 16.7321 45.687 16.7457C45.6374 16.7593 45.5933 16.7882 45.5606 16.8282Z" fill="#1D1D1D"/>
<path d="M20.0351 23.3166C19.6284 23.3169 19.2262 23.2301 18.8552 23.062C18.4843 22.8939 18.153 22.6483 17.8833 22.3414H15.743C16.1123 23.1774 16.7142 23.8877 17.4758 24.3861C18.2374 24.8846 19.126 25.1498 20.0341 25.1498C20.9423 25.1498 21.8309 24.8846 22.5925 24.3861C23.3541 23.8877 23.956 23.1774 24.3253 22.3414H22.1859C21.9164 22.6481 21.5852 22.8937 21.2144 23.0618C20.8437 23.2299 20.4417 23.3167 20.0351 23.3166Z" fill="#1D1D1D"/>
<path d="M30.1967 20.4124C30.1967 20.1694 30.1009 19.9364 29.9303 19.7645C29.7598 19.5927 29.5285 19.4961 29.2873 19.4961H10.7847C10.5435 19.4961 10.3123 19.5927 10.1417 19.7645C9.97119 19.9364 9.87538 20.1694 9.87538 20.4124C9.87538 20.6554 9.97119 20.8885 10.1417 21.0603C10.3123 21.2321 10.5435 21.3287 10.7847 21.3287H29.2845C29.4041 21.329 29.5227 21.3057 29.6333 21.2598C29.744 21.2139 29.8446 21.1465 29.9293 21.0613C30.0141 20.9762 30.0813 20.8751 30.1272 20.7637C30.173 20.6523 30.1967 20.5329 30.1967 20.4124Z" fill="#1D1D1D"/>
<path d="M0.00550293 13.1204V7.88987H1.44484V9.36764L1.24198 8.93987C1.39654 8.57042 1.64448 8.29172 1.9858 8.10375C2.32712 7.90931 2.7425 7.81209 3.23194 7.81209V9.21209C3.16754 9.20561 3.10958 9.20237 3.05806 9.20237C3.00654 9.19588 2.9518 9.19264 2.89384 9.19264C2.48168 9.19264 2.1468 9.31255 1.8892 9.55237C1.63804 9.7857 1.51246 10.1519 1.51246 10.651V13.1204H0.00550293Z" fill="#1D1D1D"/>
<path d="M6.66947 13.1982C6.07699 13.1982 5.55535 13.0815 5.10455 12.8482C4.66019 12.6149 4.31565 12.2973 4.07093 11.8954C3.82621 11.4871 3.70385 11.0237 3.70385 10.5051C3.70385 9.98014 3.82299 9.51672 4.06127 9.11487C4.30599 8.70653 4.63765 8.38894 5.05625 8.16209C5.47485 7.92875 5.94819 7.81209 6.47627 7.81209C6.98503 7.81209 7.44227 7.92227 7.84799 8.14264C8.26015 8.35653 8.58537 8.66764 8.82365 9.07598C9.06193 9.47783 9.18107 9.9607 9.18107 10.5246C9.18107 10.5829 9.17785 10.651 9.17141 10.7288C9.16497 10.8001 9.15853 10.8681 9.15209 10.9329H4.93067V10.0482H8.35997L7.78037 10.3107C7.78037 10.0385 7.72563 9.8019 7.61615 9.60098C7.50667 9.40005 7.35533 9.2445 7.16213 9.13431C6.96893 9.01764 6.74353 8.95931 6.48593 8.95931C6.22833 8.95931 5.99971 9.01764 5.80007 9.13431C5.60687 9.2445 5.45553 9.40329 5.34605 9.6107C5.23657 9.81163 5.18183 10.0514 5.18183 10.3301V10.5635C5.18183 10.8487 5.24301 11.1014 5.36537 11.3218C5.49417 11.5357 5.67127 11.701 5.89667 11.8176C6.12851 11.9278 6.39899 11.9829 6.70811 11.9829C6.98503 11.9829 7.22653 11.9408 7.43261 11.8565C7.64513 11.7723 7.83833 11.6459 8.01221 11.4774L8.81399 12.3524C8.57571 12.6246 8.27625 12.8352 7.91561 12.9843C7.55497 13.1269 7.13959 13.1982 6.66947 13.1982Z" fill="#1D1D1D"/>
<path d="M12.4158 13.1982C11.9264 13.1982 11.4852 13.088 11.0924 12.8676C10.6996 12.6408 10.3872 12.3264 10.1554 11.9246C9.92997 11.5227 9.81727 11.0496 9.81727 10.5051C9.81727 9.95422 9.92997 9.47783 10.1554 9.07598C10.3872 8.67412 10.6996 8.36301 11.0924 8.14264C11.4852 7.92227 11.9264 7.81209 12.4158 7.81209C12.8537 7.81209 13.2369 7.90931 13.5654 8.10375C13.8938 8.2982 14.1482 8.59311 14.3285 8.98848C14.5088 9.38385 14.599 9.8894 14.599 10.5051C14.599 11.1144 14.512 11.62 14.3382 12.0218C14.1643 12.4172 13.9131 12.7121 13.5847 12.9065C13.2627 13.101 12.8731 13.1982 12.4158 13.1982ZM12.6766 11.9538C12.9214 11.9538 13.1435 11.8954 13.3432 11.7788C13.5428 11.6621 13.7006 11.4968 13.8165 11.2829C13.9389 11.0626 14.0001 10.8033 14.0001 10.5051C14.0001 10.2005 13.9389 9.94125 13.8165 9.72737C13.7006 9.51348 13.5428 9.3482 13.3432 9.23153C13.1435 9.11487 12.9214 9.05653 12.6766 9.05653C12.4255 9.05653 12.2001 9.11487 12.0004 9.23153C11.8008 9.3482 11.6398 9.51348 11.5174 9.72737C11.4015 9.94125 11.3436 10.2005 11.3436 10.5051C11.3436 10.8033 11.4015 11.0626 11.5174 11.2829C11.6398 11.4968 11.8008 11.6621 12.0004 11.7788C12.2001 11.8954 12.4255 11.9538 12.6766 11.9538ZM14.0387 13.1204V12.051L14.0677 10.4954L13.9711 8.94959V5.90653H15.478V13.1204H14.0387Z" fill="#1D1D1D"/>
<path d="M16.979 13.1204V6.31487H19.906C20.5114 6.31487 21.033 6.41533 21.4709 6.61625C21.9089 6.8107 22.2469 7.09264 22.4852 7.46209C22.7235 7.83153 22.8426 8.27227 22.8426 8.78431C22.8426 9.28987 22.7235 9.72737 22.4852 10.0968C22.2469 10.4598 21.9089 10.7385 21.4709 10.9329C21.033 11.1274 20.5114 11.2246 19.906 11.2246H17.8484L18.5439 10.5343V13.1204H16.979ZM21.2777 13.1204L19.5872 10.651H21.2584L22.9682 13.1204H21.2777ZM18.5439 10.7093L17.8484 9.97042H19.8191C20.3021 9.97042 20.6627 9.86672 20.901 9.65931C21.1393 9.44542 21.2584 9.15375 21.2584 8.78431C21.2584 8.40838 21.1393 8.11672 20.901 7.90931C20.6627 7.7019 20.3021 7.5982 19.8191 7.5982H17.8484L18.5439 6.84959V10.7093Z" fill="#1D1D1D"/>
<path d="M27.1169 13.1204V12.0996L27.0203 11.876V10.0482C27.0203 9.72412 26.9205 9.47135 26.7208 9.28987C26.5276 9.10838 26.2282 9.01764 25.8225 9.01764C25.5455 9.01764 25.2718 9.06301 25.0014 9.15375C24.7373 9.23801 24.5119 9.35468 24.3252 9.50375L23.7842 8.44403C24.0676 8.24311 24.4089 8.08755 24.8082 7.97737C25.2074 7.86718 25.6132 7.81209 26.0253 7.81209C26.8174 7.81209 27.4325 8.00005 27.8704 8.37598C28.3083 8.7519 28.5273 9.33848 28.5273 10.1357V13.1204H27.1169ZM25.5327 13.1982C25.1269 13.1982 24.7792 13.1301 24.4894 12.994C24.1996 12.8514 23.9774 12.6602 23.8228 12.4204C23.6683 12.1806 23.591 11.9116 23.591 11.6135C23.591 11.3024 23.6651 11.0301 23.8132 10.7968C23.9677 10.5635 24.2092 10.382 24.5377 10.2524C24.8661 10.1163 25.2944 10.0482 25.8225 10.0482H27.2038V10.9329H25.9867C25.6325 10.9329 25.3878 10.9913 25.2525 11.1079C25.1237 11.2246 25.0593 11.3704 25.0593 11.5454C25.0593 11.7399 25.1334 11.8954 25.2815 12.0121C25.4361 12.1223 25.6454 12.1774 25.9094 12.1774C26.1606 12.1774 26.386 12.119 26.5856 12.0024C26.7852 11.8792 26.9301 11.701 27.0203 11.4676L27.2521 12.1676C27.1427 12.5047 26.943 12.7607 26.6532 12.9357C26.3634 13.1107 25.9899 13.1982 25.5327 13.1982Z" fill="#1D1D1D"/>
<path d="M29.8911 13.1204V7.88987H31.3981V13.1204H29.8911ZM30.6446 7.1607C30.3677 7.1607 30.1423 7.07968 29.9684 6.91764C29.7945 6.75561 29.7076 6.55468 29.7076 6.31487C29.7076 6.07505 29.7945 5.87412 29.9684 5.71209C30.1423 5.55005 30.3677 5.46903 30.6446 5.46903C30.9215 5.46903 31.1469 5.54681 31.3208 5.70237C31.4947 5.85144 31.5816 6.04588 31.5816 6.2857C31.5816 6.53848 31.4947 6.74912 31.3208 6.91764C31.1534 7.07968 30.928 7.1607 30.6446 7.1607Z" fill="#1D1D1D"/>
<path d="M32.7967 13.1204V5.90653H34.3036V13.1204H32.7967Z" fill="#1D1D1D"/>
</svg>
