<svg width="42" height="27" viewBox="0 0 42 27" fill="none" xmlns="http://www.w3.org/2000/svg">
<path fill-rule="evenodd" clip-rule="evenodd" d="M39.7659 3.42285C38.7159 1.52584 37.366 0.441832 35.9162 0.294013C22.3172 -0.96245 4.96852 2.01857 1.41879 5.24595C-0.131089 6.65023 -0.406068 9.95153 0.568857 15.3469C1.24381 19.1163 2.29373 22.4915 2.31872 22.6393L2.54371 23.3784L6.86837 22.9103C7.21835 25.2262 9.24319 27 11.693 27C14.3678 27 16.5676 24.8566 16.5676 22.1959C16.5676 22.0727 16.5676 21.9741 16.5426 21.851L26.7918 20.6931C26.7918 20.7177 26.7918 20.767 26.7918 20.7916C26.7918 23.4277 28.9667 25.5957 31.6665 25.5957C34.3413 25.5957 36.5411 23.4523 36.5411 20.7916C36.5411 20.3974 36.4911 20.0032 36.3911 19.6337L40.7658 19.1409L40.9908 18.6729C42.7406 15.1252 42.1407 7.70961 39.7659 3.42285ZM11.693 25.103C10.0681 25.103 8.74323 23.7973 8.74323 22.1959C8.74323 20.5945 10.0681 19.2888 11.693 19.2888C13.3179 19.2888 14.6428 20.5945 14.6428 22.1959C14.6428 23.7973 13.3179 25.103 11.693 25.103ZM31.6415 23.7233C30.0166 23.7233 28.6917 22.4176 28.6917 20.8162C28.6917 19.2149 30.0166 17.9091 31.6415 17.9091C33.2664 17.9091 34.5913 19.2149 34.5913 20.8162C34.5913 22.4176 33.2664 23.7233 31.6415 23.7233ZM39.4409 17.3918L35.4662 17.8352C35.1662 17.441 34.7912 17.1208 34.3913 16.8498C33.6163 16.3078 32.6664 16.0121 31.6415 16.0121C30.1416 16.0121 28.7667 16.7019 27.8918 17.7613C27.6168 18.0569 27.3668 18.4019 27.1168 18.7714L16.0177 20.0032C15.9177 19.8061 15.7927 19.609 15.6677 19.4366C15.6427 19.412 15.6427 19.3873 15.6177 19.3627C14.7178 18.1801 13.2929 17.3918 11.693 17.3918C10.4431 17.3918 9.31819 17.8599 8.46825 18.5989C7.74331 19.1902 7.19335 20.0032 6.86837 20.9887L3.9186 21.309C2.34372 15.9136 0.993824 8.20234 2.71869 6.6256C5.09351 4.45758 17.2676 1.87075 29.1667 1.87075C31.3915 1.87075 33.5913 1.9693 35.7162 2.16639C36.5161 2.26493 37.366 3.02867 38.091 4.3344C40.0408 7.85742 40.6658 14.2136 39.4409 17.3918ZM7.09336 10.2718C6.99336 10.1979 6.84338 10.124 6.64339 10.0501C6.44341 9.97616 6.21842 9.95153 5.96844 9.95153C5.66847 9.95153 5.41849 10.0008 5.1935 10.0747C4.99352 10.1733 4.81853 10.2718 4.66854 10.4196V14.3122H3.01867V8.54725L4.66854 8.4487V9.01534L5.1935 8.69507C5.36849 8.59652 5.54348 8.52261 5.76846 8.4487C5.99344 8.37479 6.16843 8.35016 6.36841 8.35016C6.5684 8.35016 6.71839 8.35015 6.81838 8.37479C6.94337 8.39943 7.01836 8.42406 7.09336 8.4487V10.2718ZM11.793 10.9124C11.718 10.4689 11.543 10.1486 11.293 9.92689C11.0431 9.70516 10.7431 9.60662 10.3681 9.60662C9.94314 9.60662 9.61816 9.7298 9.39318 9.97617C9.1682 10.2225 9.04321 10.5428 8.99321 10.937H11.793V10.9124ZM13.3429 11.6761H9.01821C9.1182 12.1442 9.29319 12.4891 9.56817 12.6862C9.84315 12.8833 10.1931 13.0065 10.5931 13.0065C10.9181 13.0065 11.268 12.9572 11.668 12.8586C12.068 12.7601 12.368 12.6369 12.5929 12.4891V13.9426C12.368 14.0905 12.068 14.2136 11.618 14.2876C11.193 14.3615 10.8431 14.4107 10.5931 14.4107C9.56817 14.4107 8.74323 14.1397 8.16828 13.5731C7.59332 13.0065 7.29334 12.2674 7.29334 11.3312C7.29334 10.395 7.59332 9.63125 8.19327 9.06461C8.79323 8.49797 9.51817 8.20233 10.4181 8.20233C11.318 8.20233 12.018 8.52261 12.5429 9.13852C13.0679 9.75444 13.3429 10.6167 13.3429 11.6761ZM18.0675 12.5384V10.0008C17.9675 9.87762 17.8175 9.77907 17.6176 9.70516C17.4176 9.63125 17.1926 9.58198 16.9426 9.58198C16.4926 9.58198 16.1427 9.70516 15.9427 9.97617C15.7177 10.2472 15.6177 10.666 15.6177 11.2326C15.6177 11.8239 15.7427 12.2427 15.9677 12.5384C16.1927 12.834 16.5176 12.9572 16.9176 12.9572C17.1676 12.9572 17.3926 12.9079 17.5926 12.834C17.7925 12.7601 17.9425 12.6615 18.0675 12.5384ZM19.6924 14.3122H18.4425L18.0925 13.7702L17.2176 14.2383C17.1426 14.2876 17.0426 14.3122 16.8926 14.3368C16.7426 14.3615 16.6426 14.3615 16.5426 14.3615C15.6927 14.3615 15.0427 14.0905 14.5928 13.4992C14.1428 12.9325 13.9178 12.2181 13.9178 11.3558C13.9178 10.4196 14.1928 9.68053 14.7178 9.13852C15.2677 8.59652 15.9677 8.32552 16.8426 8.32552C17.0926 8.32552 17.3176 8.35015 17.5176 8.37479C17.7175 8.42406 17.8925 8.47334 18.0675 8.59652V6.05896H19.6924V14.3122ZM25.292 11.7007C25.292 11.2819 25.167 10.9616 24.942 10.7645C24.717 10.5674 24.392 10.4689 24.0171 10.4689H22.8671V12.9325H24.167C24.542 12.9325 24.842 12.834 25.017 12.6123C25.192 12.4152 25.292 12.0949 25.292 11.7007ZM24.992 8.57188C24.992 8.25161 24.892 7.98061 24.692 7.78351C24.492 7.58642 24.217 7.48788 23.8671 7.48788H22.8671V9.70516H23.9671C24.292 9.70516 24.542 9.60662 24.717 9.40952C24.917 9.1878 24.992 8.91679 24.992 8.57188ZM27.1418 11.9225C27.1418 12.6369 26.9168 13.2282 26.4419 13.647C25.9669 14.0905 25.367 14.2876 24.642 14.2876H21.0673V6.0836H24.567C25.217 6.0836 25.7669 6.25605 26.1669 6.6256C26.5919 6.99515 26.7918 7.48788 26.7918 8.12843C26.7918 8.64579 26.6669 9.03998 26.4169 9.36025C26.1669 9.68053 25.7919 9.85298 25.292 9.92689C25.7919 10.0008 26.2169 10.2225 26.5919 10.5674C26.9668 10.9124 27.1418 11.3558 27.1418 11.9225ZM33.6413 14.3122H31.9915V13.6716L31.2915 14.0658C31.0915 14.1644 30.8915 14.2629 30.6916 14.3122C30.4916 14.3615 30.2416 14.4107 30.0166 14.4107C29.4416 14.4107 28.9917 14.2383 28.6417 13.8934C28.3167 13.5485 28.1417 13.0804 28.1417 12.4891V8.57188H29.7916V12.1195C29.7916 12.3413 29.8666 12.5137 30.0166 12.6862C30.1666 12.8586 30.4166 12.9325 30.7165 12.9325C31.0165 12.9325 31.2665 12.8833 31.4665 12.7601C31.6915 12.6369 31.8415 12.5384 31.9415 12.4152V8.54725H33.5913V14.3122H33.6413ZM39.3909 12.3413C39.3909 12.9572 39.1659 13.4746 38.7159 13.8687C38.266 14.2383 37.691 14.4354 37.0161 14.4354C36.6911 14.4354 36.3161 14.4107 35.8912 14.3368C35.4412 14.2629 35.0662 14.1397 34.7162 13.9673V12.5137C34.9912 12.6615 35.2912 12.7847 35.6412 12.9079C35.9911 13.0065 36.3661 13.0804 36.8411 13.0804C37.1661 13.0804 37.416 13.0311 37.616 12.9572C37.816 12.8586 37.916 12.7108 37.916 12.4645C37.916 12.3166 37.841 12.1688 37.666 12.0703C37.491 11.9717 37.216 11.8978 36.7911 11.8732C36.0411 11.8239 35.5412 11.6268 35.2412 11.3312C34.9412 11.0355 34.7912 10.6414 34.7912 10.1486C34.7912 9.58198 35.0162 9.13852 35.4662 8.76898C35.9161 8.39943 36.4911 8.22697 37.1411 8.22697C37.441 8.22697 37.741 8.25161 38.066 8.30088C38.391 8.35015 38.6659 8.39943 38.9159 8.49797V9.97617C38.6159 9.85298 38.341 9.75444 38.066 9.70516C37.791 9.65589 37.466 9.60662 37.1411 9.60662C36.8661 9.60662 36.6661 9.65589 36.5161 9.7298C36.3661 9.82835 36.2911 9.92689 36.2911 10.0254C36.2911 10.2472 36.3911 10.395 36.6161 10.4443C36.8161 10.5182 37.0411 10.5674 37.291 10.5674C37.991 10.6167 38.541 10.7892 38.8909 11.0848C39.2159 11.4051 39.3909 11.8239 39.3909 12.3413Z" fill="#1D1D1D"/>
</svg>
