<svg width="44" height="32" viewBox="0 0 44 32" fill="none" xmlns="http://www.w3.org/2000/svg">
<path d="M35.4453 6.61823L34.4578 6.38593C33.2645 6.11323 32.3386 5.19412 32.0506 4.02252L31.814 3.05292C31.7522 2.79031 31.3716 2.79031 31.3099 3.05292L31.0733 4.02252C30.7955 5.19412 29.8594 6.10313 28.6661 6.38593L27.6786 6.61823C27.4111 6.67883 27.4111 7.05253 27.6786 7.11313L28.6661 7.33533C29.8594 7.60803 30.7853 8.52714 31.0733 9.69874L31.3099 10.6683C31.3716 10.9309 31.7522 10.9309 31.814 10.6683L32.0506 9.69874C32.3283 8.52714 33.2645 7.60803 34.4578 7.33533L35.4453 7.11313C35.7128 7.05253 35.7128 6.67883 35.4453 6.61823Z" fill="#1D1D1D"/>
<path d="M26.8146 3.67912L26.2591 3.54782C25.3538 3.33572 24.644 2.64891 24.4383 1.76011L24.3045 1.21471C24.2531 0.982406 23.9033 0.982406 23.8519 1.21471L23.7182 1.76011C23.5021 2.64891 22.8026 3.33572 21.8974 3.54782L21.3419 3.67912C21.1052 3.72962 21.1052 4.07302 21.3419 4.12352L21.8974 4.25482C22.8026 4.46692 23.5124 5.15372 23.7182 6.04253L23.8519 6.58793C23.9033 6.82023 24.2531 6.82023 24.3045 6.58793L24.4383 6.04253C24.6543 5.15372 25.3538 4.45682 26.2591 4.25482L26.8146 4.12352C27.0512 4.07302 27.0512 3.72962 26.8146 3.67912Z" fill="#1D1D1D"/>
<path d="M43.4691 21.1118C43.4691 20.2533 42.8005 19.5463 41.9569 19.4554C42.1112 19.1019 42.2038 18.7181 42.2038 18.3141V15.5669C42.2038 14.0115 40.9179 12.749 39.3337 12.749H17.2679C18.1321 12.3652 18.6361 12.0016 18.6567 11.9915L19.1196 11.6481C19.1196 11.6481 19.1505 11.6178 19.1711 11.5976C19.2431 11.5067 19.2328 11.3653 19.1505 11.2845L18.7287 10.8805C16.445 8.70894 14.1201 7.72924 11.8158 7.97164C8.93541 8.27464 7.05287 10.4057 6.49737 11.1128C6.43565 11.1936 6.43565 11.3047 6.48708 11.3855C6.50765 11.4158 6.53852 11.4461 6.57966 11.4663C6.85742 11.6178 7.29976 11.84 7.55694 11.9511C7.65981 11.9915 7.77297 12.042 7.87584 12.1026C8.31818 12.3551 8.75024 12.5672 9.17201 12.749H5.60239V6.48693C5.60239 6.34553 5.59211 6.21423 5.56124 6.08293C5.33493 5.07293 4.25478 4.33562 2.92775 4.33562H0.5V24.7175V27.293C0.5 28.2121 1.26124 28.9595 2.19737 28.9595H3.90502C4.84115 28.9595 5.60239 28.2121 5.60239 27.293V24.9902H5.61268V24.6771H38.3976V27.293C38.3976 28.2121 39.1589 28.9595 40.095 28.9595H41.8026C42.7388 28.9595 43.5 28.2121 43.5 27.293V23.2025H43.4897C43.4897 23.1419 43.5 23.0813 43.5 23.0106V21.1219L43.4691 21.1118ZM8.97655 11.0017C8.91483 10.9007 8.93541 10.7593 9.03828 10.6886C9.77895 10.1128 10.7871 9.55735 11.9907 9.43615C13.5029 9.27455 15.0665 9.83005 16.661 11.0522C16.7742 11.133 16.7845 11.2845 16.7022 11.3855C16.6816 11.4158 16.6507 11.4461 16.6096 11.4562C15.1385 12.1026 12.3713 12.7995 9.06914 11.0825C9.02799 11.0623 8.99713 11.032 8.97655 10.9916V11.0017ZM3.8433 7.87064V23.0005V24.9902V26.8688C3.8433 27.091 3.65813 27.2627 3.44211 27.2627H2.61914C2.39282 27.2627 2.21794 27.0809 2.21794 26.8688V24.9902V24.4751L2.19737 6.20413C2.19737 6.11323 2.22823 6.02233 2.28995 5.95163C2.36196 5.86073 2.47512 5.80013 2.60885 5.80013H3.38038C3.38038 5.80013 3.41124 5.80013 3.42153 5.80013H3.44211C3.66842 5.80013 3.8433 5.98193 3.8433 6.19403V7.87064ZM5.61268 14.466H39.3337C39.951 14.466 40.455 14.9609 40.455 15.5669V18.3141C40.455 18.9201 39.951 19.415 39.3337 19.415H5.61268V14.466ZM5.61268 22.95V21.1623H41.7203V22.95H5.61268ZM41.7306 26.8587C41.7306 27.0809 41.5455 27.2526 41.3294 27.2526H40.5065C40.2801 27.2526 40.1053 27.0708 40.1053 26.8587V24.667H41.7306V26.8587Z" fill="#1D1D1D"/>
</svg>
