<svg width="42" height="26" viewBox="0 0 42 26" fill="none" xmlns="http://www.w3.org/2000/svg">
<path d="M40.9755 17.723C40.8287 15.6076 40.4171 13.5559 39.7526 11.625C39.0719 9.64617 38.1051 7.73404 36.8789 5.94383C36.1158 4.82886 35.18 3.86915 34.0985 3.09283C33.0074 2.31027 31.7394 1.69338 30.331 1.2599C28.9322 0.829538 27.4467 0.818076 26.1347 0.807656C22.9363 0.782647 19.6854 0.782647 16.5427 0.783689C15.6788 0.783689 14.816 0.783689 13.9521 0.783689C9.83619 0.781605 5.51021 0.783689 1.09526 0.788899C1.06739 0.788899 1.02881 0.786815 0.989149 0.784731C0.782282 0.774311 0.470375 0.757638 0.232424 0.950414C0.130599 1.03273 0.00840387 1.18383 0.00733202 1.43704C0.00518832 1.69442 0.126306 1.84656 0.22706 1.92992C0.463938 2.12374 0.77585 2.10811 0.981645 2.09769C1.02238 2.09561 1.05989 2.09457 1.0899 2.09352C5.08254 2.09457 9.1427 2.09352 13.0678 2.09352C17.0079 2.09352 21.0831 2.09352 25.0907 2.09352C26.2848 2.09352 27.452 2.10603 28.5946 2.26129C30.734 2.55202 32.6033 3.48151 34.3076 5.10291C34.4662 5.25401 34.6109 5.41865 34.7588 5.59267C34.7299 5.59267 34.702 5.59267 34.6741 5.59475C34.2411 5.60621 33.897 5.75106 33.7052 6.00323C33.5133 6.25331 33.4951 6.58051 33.6527 6.92334C33.7824 7.20365 33.9153 7.48812 34.045 7.76426C34.493 8.72085 34.956 9.70974 35.343 10.6976C35.8714 12.0512 36.2991 13.4611 36.7117 14.824C36.8843 15.3951 37.0644 15.9859 37.2487 16.5663C37.2873 16.6882 37.3237 16.8143 37.3602 16.9362C37.4138 17.1207 37.4695 17.3114 37.5349 17.5C37.6882 17.9366 37.9261 18.2971 38.2423 18.5722C38.5542 18.8431 38.9433 19.0328 39.3988 19.136C39.3485 19.4152 39.2884 19.7299 39.2284 19.7831C39.1523 19.8289 38.7375 19.8289 38.4052 19.8289H30.1724C21.0466 19.8289 11.9209 19.8279 2.79521 19.8279H1.30427C1.28712 19.8279 1.27104 19.8279 1.25389 19.8279C1.23246 19.8279 1.21102 19.83 1.19066 19.831C1.16922 19.8331 1.14885 19.8341 1.12849 19.8372C1.11777 19.8383 1.10813 19.8393 1.09741 19.8414C1.07704 19.8445 1.05668 19.8477 1.03631 19.8508C1.02559 19.8529 1.01594 19.8539 1.0063 19.856C0.767273 19.9039 0.552905 20.0092 0.384625 20.154C0.213129 20.3009 0.0898654 20.4896 0.0352011 20.7011C0.0352011 20.7011 0.0352011 20.7021 0.0352011 20.7032C0.0352011 20.7042 0.0352011 20.7053 0.0352011 20.7063C0.014836 20.7855 0.00411987 20.8668 0.00411987 20.9512C0.00411987 21.0356 0.0159099 21.1231 0.0373469 21.2044C0.0373469 21.2054 0.037348 21.2075 0.0384198 21.2096C0.167042 21.6837 0.644013 22.0422 1.22281 22.0734C1.24961 22.0745 1.27747 22.0755 1.30534 22.0755H2.2132C2.53047 22.0755 2.84451 22.0755 3.15428 22.0755C6.39233 22.0755 9.62932 22.0755 12.8684 22.0755H12.9606C13.1482 22.8393 13.6209 23.5333 14.3101 24.0502C15.0786 24.6264 16.0701 24.9442 17.1012 24.9442C18.1323 24.9442 19.0841 24.6264 19.8537 24.0502C20.5429 23.5333 21.0274 22.8383 21.2353 22.0745H21.3146C21.6533 22.0745 21.992 22.0745 22.3307 22.0745H22.4229C22.6105 22.8383 23.0821 23.5333 23.7724 24.0502C24.5409 24.6264 25.5323 24.9442 26.5635 24.9442C27.5946 24.9442 28.5485 24.6264 29.3106 24.0491C29.9955 23.5302 30.4661 22.8362 30.6515 22.0745H30.7244C32.9302 22.0745 35.1361 22.0745 37.342 22.0745C38.2337 22.0745 38.9465 21.8942 39.521 21.5253C40.0913 21.1585 40.4953 20.624 40.7569 19.8893C41.0291 19.1245 41.0206 18.3659 40.9766 17.723H40.9755ZM17.099 23.5552C16.0025 23.5552 15.0454 22.9623 14.6424 22.0755C16.2673 22.0755 17.8922 22.0755 19.5182 22.0755C19.1495 22.9404 18.1752 23.5563 17.099 23.5563V23.5552ZM26.5624 23.5552C25.4659 23.5552 24.5087 22.9623 24.1057 22.0745C25.7306 22.0745 27.3556 22.0745 28.9815 22.0745C28.6128 22.9394 27.6385 23.5552 26.5624 23.5552ZM39.4567 17.5812C39.4556 17.6302 39.4535 17.6823 39.4524 17.7344C39.1716 17.5573 39.0355 17.2728 38.9144 16.8727C38.8329 16.6049 38.7525 16.336 38.6721 16.0682C37.7589 13.0349 36.8146 9.89834 35.3108 6.95043C35.3022 6.93272 35.2926 6.91396 35.2819 6.89521C35.314 6.89312 35.3473 6.89 35.3816 6.88791C35.6742 6.86603 35.7964 6.90875 35.9904 7.21615C36.9797 8.78962 37.7729 10.459 38.3495 12.1752C38.9112 13.8476 39.2852 15.6181 39.4599 17.4374C39.4599 17.4833 39.4578 17.5302 39.4557 17.5802L39.4567 17.5812Z" fill="#1D1D1D"/>
<path d="M1.60027 6.78579C4.74507 6.78787 7.41291 6.78995 10.3015 6.79204C10.3015 6.81079 10.3015 6.82851 10.3015 6.84205C10.3015 9.59302 10.3015 12.3429 10.3015 15.0939C7.10743 15.0939 4.6261 15.0939 1.28515 15.097H0.741724C0.33335 15.097 0.00321869 15.3815 0.00321869 15.7316C0.00321869 16.0828 0.33335 16.3662 0.741724 16.3662H1.28515C5.85123 16.3704 9.26185 16.3694 14.2577 16.3673C14.3338 16.3673 14.4057 16.3652 14.4743 16.361H24.8519C24.898 16.3631 24.9451 16.3652 24.9934 16.3652C27.0267 16.3683 29.0932 16.3673 31.0911 16.3673C31.7782 16.3673 32.4652 16.3673 33.1523 16.3673C33.222 16.3673 33.2927 16.3673 33.3634 16.3683C33.5499 16.3704 33.7418 16.3725 33.9379 16.361C34.3731 16.335 34.7697 16.1589 35.0248 15.8775C35.2531 15.6253 35.3442 15.3159 35.2788 15.0064C34.7397 12.4242 34.1309 9.91605 32.6249 7.61316C32.044 6.72639 31.3623 5.80523 30.3087 5.07685C28.9646 4.1484 27.3525 3.67636 25.5207 3.67532C19.1829 3.67219 12.7389 3.67324 6.5072 3.67324C4.86834 3.67324 3.86187 3.67324 2.54886 3.67324H1.5992C0.92501 3.67324 0.348351 4.07859 0.113616 4.6517C0.04073 4.82989 0 5.02371 0 5.22691C0 5.43114 0.040731 5.62705 0.114689 5.80627C0.350495 6.37835 0.926082 6.78266 1.5992 6.78266L1.60027 6.78579ZM14.3478 15.0908V15.0929C14.321 15.0929 14.2877 15.0929 14.2492 15.0929C13.4356 15.0929 12.6221 15.0929 11.8075 15.0929V14.6656C11.8075 12.0845 11.8075 9.419 11.7978 6.79204C12.5642 6.79204 13.3531 6.79308 14.1763 6.79412C14.2224 6.79412 14.2877 6.79412 14.3478 6.79516H15.8451V6.78474C15.8569 6.78474 15.8677 6.78474 15.8794 6.78474C15.8794 6.78787 15.8794 6.79099 15.8794 6.79412H21.9579C21.9579 6.81184 21.9579 6.82851 21.9579 6.84101C21.9579 9.59302 21.9579 12.345 21.9579 15.097H15.8548V15.0897H14.3488L14.3478 15.0908ZM31.0943 7.92577C31.5134 8.52494 31.8393 9.07721 32.0912 9.61282C32.9154 11.3728 33.3763 13.2308 33.7514 14.9762C33.7622 15.0251 33.7675 15.0616 33.7707 15.0897C33.7354 15.0918 33.6861 15.0939 33.6218 15.0939C31.3612 15.0939 29.1007 15.0939 26.8402 15.0939H25.1445C25.0641 15.0939 25.0062 15.0918 24.9655 15.0897H23.4638V14.6656C23.4638 12.0856 23.4638 9.42108 23.4542 6.79412H25.7104C26.7083 6.78995 27.7373 6.78578 28.7481 6.79621C29.8038 6.80767 30.5713 7.17655 31.0943 7.92368V7.92577Z" fill="#1D1D1D"/>
</svg>
