<svg width="16" height="16" viewBox="0 0 16 16" fill="none" xmlns="http://www.w3.org/2000/svg">
<path d="M6.6667 8.66667C4.9178 8.66667 3.50003 10.0844 3.50003 11.8333L3.50003 13.8333L4.50003 13.8333L4.50003 11.8333C4.50003 10.6367 5.47008 9.66667 6.6667 9.66667L9.33336 9.66667C10.53 9.66667 11.5 10.6367 11.5 11.8333L11.5 13.8333L12.5 13.8333L12.5 11.8333C12.5 10.0844 11.0823 8.66667 9.33336 8.66667L6.6667 8.66667Z" fill="#1D1D1D"/>
<path fill-rule="evenodd" clip-rule="evenodd" d="M8.00003 1.33333C6.25113 1.33333 4.83336 2.7511 4.83336 4.5C4.83336 6.2489 6.25113 7.66667 8.00003 7.66667C9.74893 7.66667 11.1667 6.2489 11.1667 4.5C11.1667 2.7511 9.74893 1.33333 8.00003 1.33333ZM8.00003 2.33333C9.19665 2.33333 10.1667 3.30338 10.1667 4.5C10.1667 5.69662 9.19665 6.66667 8.00003 6.66667C6.80341 6.66667 5.83336 5.69662 5.83336 4.5C5.83336 3.30338 6.80341 2.33333 8.00003 2.33333Z" fill="#1D1D1D"/>
</svg>
