<svg width="24" height="24" viewBox="0 0 24 24" fill="none" xmlns="http://www.w3.org/2000/svg">
<path fill-rule="evenodd" clip-rule="evenodd" d="M14.7503 12.5C15.9928 12.5001 17.0002 13.5075 17.0003 14.75C17.0003 15.9926 15.9928 16.9999 14.7503 17C13.5076 17 12.5003 15.9926 12.5003 14.75C12.5004 13.5074 13.5077 12.5 14.7503 12.5ZM14.7503 14C14.3361 14 14.0004 14.3359 14.0003 14.75C14.0003 15.1642 14.3361 15.5 14.7503 15.5C15.1644 15.4999 15.5003 15.1641 15.5003 14.75C15.5002 14.3359 15.1643 14.0001 14.7503 14Z" fill="#1D1D1D"/>
<path d="M14.97 7.96973C15.2629 7.67702 15.7377 7.67689 16.0305 7.96973C16.3233 8.26256 16.3232 8.73738 16.0305 9.03027L9.03055 16.0303C8.73767 16.3232 8.2629 16.3231 7.97 16.0303C7.67711 15.7374 7.67711 15.2626 7.97 14.9697L14.97 7.96973Z" fill="#1D1D1D"/>
<path fill-rule="evenodd" clip-rule="evenodd" d="M9.25027 7C10.4928 7.00012 11.5002 8.0075 11.5003 9.25C11.5003 10.4926 10.4928 11.4999 9.25027 11.5C8.00763 11.5 7.00027 10.4926 7.00027 9.25C7.00035 8.00743 8.00768 7 9.25027 7ZM9.25027 8.5C8.83611 8.5 8.50035 8.83585 8.50027 9.25C8.50027 9.66421 8.83606 10 9.25027 10C9.66439 9.99988 10.0003 9.66414 10.0003 9.25C10.0002 8.83593 9.66434 8.50012 9.25027 8.5Z" fill="#1D1D1D"/>
<path fill-rule="evenodd" clip-rule="evenodd" d="M9.9993 3.02832C11.0848 1.87722 12.9158 1.87718 14.0013 3.02832L14.2112 3.25195C14.5035 3.56195 14.9341 3.702 15.3528 3.62305L15.6546 3.56543C17.2094 3.27215 18.6903 4.34862 18.8919 5.91797L18.9309 6.22266C18.9852 6.64529 19.2518 7.01114 19.637 7.19336L19.9143 7.3252C21.3445 8.00185 21.91 9.7428 21.1507 11.1309L21.0032 11.4004C20.7989 11.774 20.799 12.226 21.0032 12.5996L21.1507 12.8701C21.9099 14.2582 21.3445 15.9992 19.9143 16.6758L19.637 16.8066C19.2519 16.9888 18.9853 17.3548 18.9309 17.7773L18.8919 18.082C18.6903 19.6514 17.2094 20.7279 15.6546 20.4346L15.3528 20.3779C14.9341 20.2989 14.5035 20.438 14.2112 20.748L14.0013 20.9717C12.9158 22.1228 11.0848 22.1228 9.9993 20.9717L9.78836 20.748C9.49612 20.4382 9.06627 20.2991 8.64774 20.3779L8.345 20.4346C6.79029 20.7277 5.30922 19.6513 5.1077 18.082L5.06863 17.7773C5.01429 17.3548 4.74865 16.9888 4.36356 16.8066L4.08524 16.6758C2.65531 15.9991 2.0899 14.2581 2.84891 12.8701L2.99637 12.5996C3.20074 12.2258 3.20082 11.7741 2.99637 11.4004L2.84891 11.1309C2.08961 9.74294 2.65535 8.00199 4.08524 7.3252L4.36356 7.19336C4.74869 7.01113 5.01436 6.64526 5.06863 6.22266L5.1077 5.91797C5.30922 4.34874 6.79031 3.27237 8.345 3.56543L8.64774 3.62305C9.0663 3.70183 9.49615 3.56185 9.78836 3.25195L9.9993 3.02832ZM12.9095 4.05762C12.4161 3.53436 11.5835 3.53436 11.0901 4.05762L10.8802 4.28125C10.2371 4.96324 9.29054 5.27038 8.36941 5.09668L8.06766 5.04004C7.36092 4.90673 6.68758 5.39604 6.59598 6.10938L6.55691 6.41406C6.43744 7.34375 5.85247 8.14896 5.00516 8.5498L4.72684 8.68066C4.07688 8.9883 3.82017 9.78026 4.16531 10.4111L4.31277 10.6807C4.76249 11.503 4.76262 12.498 4.31277 13.3203L4.16531 13.5898C3.82026 14.2207 4.07699 15.0117 4.72684 15.3193L5.00516 15.4512C5.85241 15.8521 6.43752 16.6572 6.55691 17.5869L6.59598 17.8916C6.68773 18.6048 7.36102 19.0942 8.06766 18.9609L8.36941 18.9033C9.29051 18.7296 10.2371 19.0368 10.8802 19.7188L11.0911 19.9424C11.5845 20.4656 12.4161 20.4656 12.9095 19.9424L13.1204 19.7188C13.7635 19.0369 14.7101 18.7296 15.6311 18.9033L15.9329 18.9609C16.6395 19.0942 17.3128 18.6048 17.4046 17.8916L17.4436 17.5869C17.563 16.6571 18.148 15.852 18.9954 15.4512L19.2727 15.3193C19.9228 15.0118 20.1802 14.2208 19.8352 13.5898L19.6878 13.3203C19.2379 12.498 19.238 11.503 19.6878 10.6807L19.8352 10.4111C20.1804 9.78018 19.9229 8.98822 19.2727 8.68066L18.9954 8.5498C18.1481 8.14897 17.5631 7.34373 17.4436 6.41406L17.4046 6.10938C17.313 5.39604 16.6396 4.90673 15.9329 5.04004L15.6311 5.09668C14.71 5.27043 13.7635 4.9632 13.1204 4.28125L12.9095 4.05762Z" fill="#1D1D1D"/>
</svg>
