<svg preserveAspectRatio="none" width="100%" height="100%" overflow="visible" style="display: block;" viewBox="0 0 76.9738 28.507" fill="none" xmlns="http://www.w3.org/2000/svg">
<path id="Path 0" fill-rule="evenodd" clip-rule="evenodd" d="M76.5943 18.6763C76.8667 18.823 76.9925 19.0955 76.9715 19.5566C76.9715 19.9339 76.6991 21.9671 76.3637 24.1052C76.0493 26.2432 75.7139 28.1087 75.651 28.2555C75.5672 28.3812 75.2947 28.507 75.0431 28.507C74.7706 28.507 73.0728 27.4799 71.2073 26.1803C69.3627 24.9017 67.6648 23.665 67.4343 23.4554C67.1199 23.1619 67.0779 22.9733 67.2247 22.7217C67.3504 22.5331 67.581 22.2816 67.7487 22.1558C68.0002 21.9881 68.5871 22.3025 70.4317 23.5392C71.7103 24.4405 72.8213 25.1532 72.8841 25.1532C72.947 25.1532 73.0309 24.9646 73.0938 24.734C73.1566 24.5034 73.3662 24.2519 73.5759 24.189C73.7645 24.1052 74.0789 24.1471 74.2466 24.2519C74.5191 24.4406 74.6239 24.0633 74.9802 21.7366C75.2947 19.6405 75.4833 18.9488 75.7977 18.7392C76.0702 18.5505 76.3008 18.5295 76.5943 18.6763ZM0.987825 0C1.26032 0 1.74242 0.440181 2.4551 1.40439C3.04201 2.17995 3.56603 2.93455 3.67084 3.08128C3.75468 3.228 3.73372 3.54241 3.60795 3.77298C3.48219 4.02452 3.18873 4.19221 2.87432 4.19221C2.4551 4.19221 2.09876 3.85683 1.19743 2.55725C0.547643 1.67689 0.0236188 0.838439 0.00265773 0.712673C-0.0183033 0.607868 0.0865009 0.398258 0.254189 0.251531C0.421877 0.104804 0.736292 0 0.987825 0ZM43.9998 3.9826C45.4462 3.9826 46.0331 4.06644 46.2636 4.29701C46.4313 4.4647 46.5781 4.73719 46.5781 4.88392C46.5781 5.00968 46.4732 5.26121 46.3265 5.40794C46.1588 5.57563 45.4042 5.65947 44.0837 5.65947C42.7422 5.65947 41.9876 5.57563 41.7989 5.40794C41.6522 5.26121 41.5264 4.98872 41.5055 4.80007C41.4845 4.63239 41.5893 4.38086 41.757 4.23413C41.9457 4.0874 42.7841 3.9826 43.9998 3.9826ZM39.0321 4.21317C39.095 4.1922 39.3675 4.35989 39.6609 4.5695C40.164 4.9468 40.164 5.00968 39.8496 5.47083C39.5771 5.89005 39.1998 6.01582 37.8583 6.22543C36.9569 6.37215 35.9927 6.49792 35.7412 6.49792C35.4687 6.49792 35.2172 6.33022 35.1543 6.14157C35.0914 5.93196 35.0914 5.59659 35.1543 5.40794C35.2172 5.19833 35.4268 4.98872 35.6364 4.92584C35.825 4.86296 36.6635 4.69527 37.46 4.52758C38.2775 4.35989 38.9692 4.21317 39.0321 4.21317ZM48.8418 4.40182C49.0305 4.40182 49.9109 4.54854 50.7703 4.73719C51.6297 4.92584 52.51 5.24025 52.7196 5.4289C52.9712 5.63851 53.076 5.93196 52.9921 6.24638C52.9292 6.49791 52.7196 6.74945 52.5519 6.81233C52.3843 6.87521 51.3781 6.70752 50.3301 6.45599C49.0934 6.14157 48.3807 5.84812 48.234 5.61755C48.1082 5.36602 48.1292 5.09353 48.2549 4.82103C48.3807 4.59046 48.6322 4.40182 48.8418 4.40182ZM5.11715 5.03064C5.32676 5.03064 6.03943 5.47083 6.71018 5.99485C7.35998 6.53984 8.03073 7.02194 8.17746 7.10578C8.32418 7.16867 8.49187 7.35731 8.53379 7.50404C8.59668 7.62981 8.55476 7.94423 8.42899 8.1748C8.32418 8.40537 8.03073 8.59402 7.80016 8.59402C7.56959 8.59402 7.06652 8.3844 6.66826 8.13287C6.27 7.86038 5.57829 7.29443 5.09619 6.87521C4.63504 6.43503 4.21582 5.95293 4.19486 5.80621C4.1739 5.65948 4.27871 5.42891 4.44639 5.28218C4.61408 5.13545 4.90754 5.03064 5.11715 5.03064ZM32.7438 5.65947C32.8067 5.65947 33.0163 5.76428 33.2468 5.91101C33.5403 6.12062 33.6032 6.33022 33.4984 6.77041C33.3936 7.27347 33.163 7.39924 31.6538 7.88135C30.6896 8.19576 29.8302 8.48922 29.7044 8.53114C29.5996 8.57306 29.3271 8.46826 29.1385 8.30057C28.9289 8.11192 28.7612 7.83942 28.7612 7.71365C28.7612 7.56692 28.845 7.31539 28.9289 7.18963C29.0127 7.0429 29.8721 6.64464 30.8573 6.28831C31.8425 5.95293 32.6809 5.65947 32.7438 5.65947ZM55.193 6.28831C55.4236 6.28831 56.304 6.62368 57.1634 7.02194C58.0228 7.4202 58.8193 7.92326 58.9241 8.13287C59.0079 8.32152 59.0708 8.61498 59.0289 8.7617C58.987 8.88747 58.7564 9.09708 58.5258 9.22285C58.1905 9.39054 57.7293 9.24381 56.3249 8.55209C55.3188 8.04903 54.4804 7.48308 54.4384 7.29443C54.3756 7.08482 54.4384 6.77041 54.5642 6.60272C54.69 6.43503 54.9834 6.28831 55.193 6.28831ZM26.6232 7.98615C26.7489 7.96519 27.0214 8.11192 27.1891 8.2796C27.3568 8.44729 27.5035 8.74075 27.5035 8.90844C27.5035 9.07612 27.2939 9.34862 27.0424 9.5163C26.7699 9.68399 25.9105 10.0194 25.093 10.2709C24.2965 10.5224 23.4161 10.6692 23.1646 10.6063C22.8083 10.5224 22.6615 10.3128 22.6406 9.87264C22.5986 9.28573 22.6615 9.24381 24.4851 8.63594C25.5122 8.27961 26.4764 7.98615 26.6232 7.98615ZM12.3487 9.01324C13.3548 9.34862 14.2981 9.76783 14.4029 9.93552C14.5496 10.1661 14.5286 10.3967 14.3819 10.6482C14.2562 10.8368 13.9208 11.0255 13.6483 11.0674C13.3758 11.1093 12.5374 10.9207 11.7828 10.6901C11.0282 10.4386 10.2526 10.0823 10.043 9.8936C9.83338 9.68399 9.66569 9.43246 9.64473 9.28573C9.64473 9.15996 9.83338 8.90844 10.0639 8.74075C10.4622 8.46825 10.7137 8.48921 12.3487 9.01324ZM60.9154 9.43246C61.1669 9.4115 61.9215 9.83072 62.6132 10.3338C63.305 10.8368 63.9967 11.3818 64.1434 11.5495C64.2901 11.7172 64.374 12.0735 64.353 12.367C64.3111 12.7233 64.1434 12.912 63.829 12.9539C63.5146 12.9749 62.7809 12.5766 61.7748 11.8011C60.7477 11.0255 60.1818 10.4386 60.1608 10.1451C60.1398 9.91456 60.2027 9.64207 60.3075 9.57919C60.4123 9.49535 60.6848 9.43246 60.9154 9.43246ZM19.7479 9.66303C20.1462 9.64207 20.6073 9.74688 20.7541 9.8936C20.9008 10.0403 20.9846 10.3967 20.9637 10.6901C20.9218 11.0884 20.7331 11.2351 20.0624 11.3609C19.6012 11.4657 18.616 11.5076 17.8824 11.4866C16.8763 11.4447 16.478 11.3399 16.3103 11.0674C16.1426 10.7949 16.1426 10.5853 16.3103 10.3338C16.478 10.0613 16.9182 9.91456 17.7776 9.83071C18.4484 9.76783 19.3497 9.68399 19.7479 9.66303ZM65.946 13.6247C66.2185 13.6247 66.9312 14.1696 67.8116 15.0919C68.5871 15.8885 69.216 16.6011 69.216 16.664C69.216 16.7269 69.1321 16.9575 69.0064 17.188C68.9016 17.4186 68.5871 17.6073 68.3356 17.6073C68.0002 17.6282 67.4552 17.1671 66.5539 16.14C65.8203 15.3435 65.2124 14.505 65.1914 14.2954C65.1705 14.0858 65.2334 13.8343 65.3382 13.7714C65.443 13.6875 65.7155 13.6247 65.946 13.6247ZM70.6204 18.6134C70.809 18.6972 71.4169 19.4518 71.9828 20.2903C72.5278 21.1077 72.989 21.9881 72.989 22.2187C72.989 22.4493 72.8003 22.7217 72.5697 22.8475C72.3392 22.9733 72.0247 23.0152 71.899 22.9523C71.7522 22.9104 71.1234 22.1348 70.5365 21.2335C69.9286 20.3322 69.4256 19.4937 69.4046 19.347C69.3837 19.2213 69.5723 18.9488 69.8238 18.7811C70.0754 18.6134 70.4317 18.5505 70.6204 18.6134Z" fill="#FDFDFD"/>
</svg>
