<svg preserveAspectRatio="none" width="100%" height="100%" overflow="visible" style="display: block;" viewBox="0 0 15.4998 15.4999" fill="none" xmlns="http://www.w3.org/2000/svg">
<path id="Vector" d="M14.2197 0.219669C14.5126 -0.0731087 14.9874 -0.0731853 15.2802 0.219669C15.5731 0.512524 15.573 0.987314 15.2802 1.28022L8.81049 7.74994L15.2802 14.2197C15.573 14.5126 15.5731 14.9874 15.2802 15.2802C14.9874 15.5731 14.5126 15.573 14.2197 15.2802L7.74994 8.81049L1.28022 15.2802C0.987324 15.5731 0.512563 15.5731 0.219669 15.2802C-0.0732235 14.9873 -0.0732228 14.5126 0.219669 14.2197L6.6894 7.74994L0.219669 1.28022C-0.0732215 0.987323 -0.0732216 0.512562 0.219669 0.219669C0.512562 -0.0732236 0.987323 -0.0732224 1.28022 0.219669L7.74994 6.6894L14.2197 0.219669Z" fill="var(--fill-0, #1D1D1D)"/>
</svg>
