<svg width="24" height="24" viewBox="0 0 24 24" fill="none" xmlns="http://www.w3.org/2000/svg">
<path d="M7.49976 19.9996C7.08558 19.9996 6.74976 19.6638 6.74976 19.2496L6.74976 6.37268L4.58667 8.52991C4.29433 8.82144 3.82099 8.82087 3.52906 8.52893C3.23692 8.23677 3.23703 7.76354 3.52906 7.47131L6.79273 4.20666C7.18318 3.81643 7.81631 3.81648 8.20679 4.20667L11.4705 7.47131C11.7626 7.76355 11.7627 8.23674 11.4705 8.52893C11.1785 8.82081 10.7052 8.82142 10.4128 8.52991L8.24976 6.37268L8.24976 19.2496C8.24976 19.6638 7.91397 19.9996 7.49976 19.9996Z" fill="#FDFDFD"/>
<path d="M17.2068 19.7926C16.8163 20.1831 16.1833 20.1831 15.7927 19.7926L12.5291 16.5289C12.2369 16.2368 12.237 15.7635 12.5291 15.4713C12.821 15.1794 13.2943 15.1788 13.5867 15.4703L15.7498 17.6276L15.7498 4.74963C15.7499 4.3356 16.0857 3.99968 16.4998 3.99964C16.9139 3.99964 17.2496 4.33557 17.2498 4.74963L17.2498 17.6276L19.4128 15.4703C19.7052 15.1788 20.1785 15.1794 20.4705 15.4713C20.7626 15.7635 20.7626 16.2367 20.4705 16.5289L17.2068 19.7926Z" fill="#FDFDFD"/>
</svg>
