<svg width="24" height="24" viewBox="0 0 24 24" fill="none" xmlns="http://www.w3.org/2000/svg">
<path fill-rule="evenodd" clip-rule="evenodd" d="M13.3352 5.42082C13.5893 5.29378 13.7498 5.03408 13.7498 4.75C13.7498 4.46592 13.5893 4.20622 13.3352 4.07918L9.33523 2.07918C9.10274 1.96293 8.82663 1.97536 8.60552 2.11201C8.38441 2.24867 8.24982 2.49007 8.24982 2.75V6.73491C8.2496 6.74534 8.2496 6.75579 8.24982 6.76625V8.09861L6.7611 9.09109C5.75736 9.76025 5.85098 11.2641 6.92997 11.8036C6.9651 11.8212 6.97935 11.8639 6.96178 11.899L5.03629 15.75H2.99982V17.25H3.99982V21C3.99982 21.5523 4.44753 22 4.99982 22H12.9998C13.0421 22 13.0839 21.9974 13.1248 21.9923C13.1658 21.9974 13.2075 22 13.2498 22H18.9998C19.5521 22 19.9998 21.5523 19.9998 21V17.25H20.9998V15.75H17.2498V15.2135L20.8352 13.4208C21.0893 13.2938 21.2498 13.0341 21.2498 12.75C21.2498 12.4659 21.0893 12.2062 20.8352 12.0792L16.8352 10.0792C16.6027 9.96293 16.3266 9.97536 16.1055 10.112C15.8844 10.2487 15.7498 10.4901 15.7498 10.75V14.7349C15.7496 14.7453 15.7496 14.7558 15.7498 14.7662V15.75H12.9633L11.0379 11.899C11.0203 11.8639 11.0345 11.8212 11.0697 11.8036C12.1486 11.2641 12.2423 9.76025 11.2385 9.09109L9.74982 8.09861V7.21353L13.3352 5.42082ZM5.49982 17.25L5.49982 20.5H12.2498V17.25H5.49982ZM9.69621 12.5698L11.2863 15.75H6.71334L8.30342 12.5698C8.69147 11.7937 8.37689 10.85 7.60079 10.462C7.58342 10.4533 7.57647 10.4448 7.57244 10.4385C7.56719 10.4303 7.56256 10.418 7.56161 10.4028C7.56066 10.3875 7.56374 10.3748 7.56793 10.366C7.57114 10.3592 7.57699 10.3499 7.59315 10.3392L8.99982 9.40139L10.4065 10.3392C10.4226 10.3499 10.4285 10.3592 10.4317 10.366C10.4359 10.3748 10.439 10.3875 10.438 10.4028C10.4371 10.418 10.4324 10.4303 10.4272 10.4385C10.4232 10.4448 10.4162 10.4533 10.3988 10.462C9.62274 10.85 9.30816 11.7937 9.69621 12.5698ZM11.3228 4.75L9.74982 5.53648V3.96353L11.3228 4.75ZM17.2498 13.5365L18.8228 12.75L17.2498 11.9635V13.5365ZM18.4998 17.25H13.9998V20.5H18.4998V17.25Z" fill="#1D1D1D"/>
</svg>
