<svg width="24" height="24" viewBox="0 0 24 24" fill="none" xmlns="http://www.w3.org/2000/svg">
<path d="M15.8883 9.88623C16.1812 9.59356 16.656 9.59341 16.9489 9.88623C17.2416 10.1791 17.2415 10.6539 16.9489 10.9468L11.0582 16.8374C10.7654 17.1303 10.2906 17.1302 9.99768 16.8374L7.05237 13.8921C6.75947 13.5992 6.75947 13.1244 7.05237 12.8315C7.34527 12.5388 7.82007 12.5387 8.11292 12.8315L10.528 15.2466L15.8883 9.88623Z" fill="#1D1D1D"/>
<path fill-rule="evenodd" clip-rule="evenodd" d="M14.0377 1.98682C15.0041 1.98698 15.7877 2.77042 15.7877 3.73682V4.04443H17.7496L17.9801 4.05615C19.1145 4.17153 19.9996 5.12957 19.9996 6.29443V19.7534C19.9994 20.9959 18.9921 22.0034 17.7496 22.0034H6.25061C5.00812 22.0034 4.00085 20.9959 4.00061 19.7534V6.29443C4.00061 5.05179 5.00797 4.04443 6.25061 4.04443H8.11584V3.73682C8.11585 2.77032 8.89935 1.98682 9.86584 1.98682H14.0377ZM6.25061 5.54443C5.8364 5.54443 5.50061 5.88022 5.50061 6.29443V19.7534C5.50085 20.1674 5.83655 20.5034 6.25061 20.5034H17.7496C18.1637 20.5034 18.4994 20.1674 18.4996 19.7534V6.29443C18.4996 5.90624 18.2048 5.58692 17.8268 5.54834L17.7496 5.54443H15.7877V6.85107C15.7877 7.26519 15.4518 7.60091 15.0377 7.60107H8.86584C8.45163 7.60107 8.11584 7.26529 8.11584 6.85107V5.54443H6.25061ZM9.86584 3.48682C9.72777 3.48682 9.61585 3.59874 9.61584 3.73682V6.10107H14.2877V3.73682C14.2877 3.61589 14.2016 3.51489 14.0875 3.4917L14.0377 3.48682H9.86584Z" fill="#1D1D1D"/>
</svg>
