<svg width="53" height="12" viewBox="0 0 53 12" fill="none" xmlns="http://www.w3.org/2000/svg">
<path fill-rule="evenodd" clip-rule="evenodd" d="M18.0838 10.9425C17.7041 11.1375 17.2752 11.235 16.797 11.235C16.0938 11.235 15.475 11.06 14.9406 10.71C14.4061 10.36 13.9912 9.8675 13.6959 9.2325C13.4006 8.5975 13.2529 7.865 13.2529 7.035C13.2529 6.215 13.3982 5.495 13.6889 4.875C13.9795 4.255 14.3874 3.775 14.9124 3.435C15.4375 3.095 16.0469 2.925 16.7407 2.925C17.2283 2.925 17.6666 3.025 18.0557 3.225C18.4448 3.425 18.7753 3.71 19.0472 4.08V0H21.5506V11.13H19.0472V10.08C18.7847 10.46 18.4636 10.7475 18.0838 10.9425ZM2.50338 6.99V11.13H0V3.015H2.50338V4.365C2.7659 3.895 3.10578 3.535 3.52301 3.285C3.94024 3.035 4.41607 2.91 4.9505 2.91V5.355C4.86611 5.345 4.73954 5.34 4.57077 5.34C3.98009 5.34 3.50191 5.4875 3.13625 5.7825C2.77059 6.0775 2.55963 6.48 2.50338 6.99ZM11.0144 10.8525C10.4565 11.0975 9.82599 11.22 9.12279 11.22C8.30708 11.22 7.59451 11.05 6.98508 10.71C6.37564 10.37 5.90919 9.89 5.58572 9.27C5.26225 8.65 5.10051 7.93 5.10051 7.11C5.10051 6.28 5.26459 5.5475 5.59275 4.9125C5.92091 4.2775 6.38502 3.7875 6.98508 3.4425C7.58514 3.0975 8.27896 2.925 9.06654 2.925C10.3042 2.925 11.2558 3.315 11.9215 4.095C12.5872 4.875 12.92 5.945 12.92 7.305C12.92 7.515 12.9154 7.675 12.906 7.785H7.61795C7.73984 8.245 7.9508 8.5975 8.25083 8.8425C8.55086 9.0875 8.91652 9.21 9.34781 9.21C9.67597 9.21 9.99241 9.14 10.2971 9C10.6018 8.86 10.8808 8.655 11.1339 8.385L12.4419 9.78C12.0481 10.25 11.5723 10.6075 11.0144 10.8525ZM10.487 6.36H7.5617C7.64608 5.88 7.82188 5.5 8.08909 5.22C8.35631 4.94 8.68681 4.8 9.0806 4.8C9.50252 4.8 9.8424 4.9425 10.1002 5.2275C10.3581 5.5125 10.487 5.89 10.487 6.36ZM17.4158 9.135C16.9283 9.135 16.5321 8.9475 16.2274 8.5725C15.9227 8.1975 15.7703 7.71 15.7703 7.11C15.7703 6.51 15.9227 6.0225 16.2274 5.6475C16.5321 5.2725 16.9283 5.085 17.4158 5.085C17.9034 5.085 18.2972 5.27 18.5972 5.64C18.8972 6.01 19.0472 6.5 19.0472 7.11C19.0472 7.71 18.8972 8.1975 18.5972 8.5725C18.2972 8.9475 17.9034 9.135 17.4158 9.135ZM30.146 10.47C29.335 10.91 28.4044 11.13 27.3543 11.13H23.2055V0.615H27.4528C28.4841 0.615 29.3959 0.835 30.1882 1.275C30.9805 1.715 31.5969 2.3325 32.0376 3.1275C32.4783 3.9225 32.6986 4.835 32.6986 5.865C32.6986 6.895 32.4759 7.81 32.0306 8.61C31.5852 9.41 30.957 10.03 30.146 10.47ZM27.5231 8.91H25.7792V2.85H27.3965C27.9122 2.85 28.3716 2.9775 28.7748 3.2325C29.1779 3.4875 29.4944 3.845 29.7241 4.305C29.9538 4.765 30.0686 5.295 30.0686 5.895C30.0686 6.485 29.9608 7.01 29.7452 7.47C29.5295 7.93 29.2295 8.285 28.8451 8.535C28.4607 8.785 28.02 8.91 27.5231 8.91ZM38.9453 10.8525C38.3874 11.0975 37.7569 11.22 37.0537 11.22C36.238 11.22 35.5254 11.05 34.916 10.71C34.3066 10.37 33.8401 9.89 33.5166 9.27C33.1932 8.65 33.0314 7.93 33.0314 7.11C33.0314 6.28 33.1955 5.5475 33.5237 4.9125C33.8518 4.2775 34.3159 3.7875 34.916 3.4425C35.5161 3.0975 36.2099 2.925 36.9975 2.925C38.2351 2.925 39.1868 3.315 39.8524 4.095C40.5181 4.875 40.851 5.945 40.851 7.305C40.851 7.515 40.8463 7.675 40.8369 7.785H35.5489C35.6708 8.245 35.8817 8.5975 36.1818 8.8425C36.4818 9.0875 36.8475 9.21 37.2787 9.21C37.6069 9.21 37.9233 9.14 38.2281 9C38.5328 8.86 38.8117 8.655 39.0649 8.385L40.3728 9.78C39.979 10.25 39.5032 10.6075 38.9453 10.8525ZM38.4179 6.36H35.4926C35.577 5.88 35.7528 5.5 36.02 5.22C36.2872 4.94 36.6177 4.8 37.0115 4.8C37.4334 4.8 37.7733 4.9425 38.0312 5.2275C38.289 5.5125 38.4179 5.89 38.4179 6.36ZM46.1062 10.215C45.5999 10.905 44.8358 11.25 43.8138 11.25C43.0074 11.25 42.3722 11.0175 41.9081 10.5525C41.444 10.0875 41.212 9.475 41.212 8.715C41.212 7.945 41.4628 7.345 41.9644 6.915C42.466 6.485 43.1856 6.265 44.1232 6.255H46.1062V6.165C46.1062 5.775 45.982 5.475 45.7335 5.265C45.485 5.055 45.1264 4.95 44.6576 4.95C44.3388 4.95 43.9802 5.005 43.5817 5.115C43.1832 5.225 42.7824 5.385 42.3793 5.595L41.6901 3.795C42.3089 3.495 42.902 3.2725 43.4692 3.1275C44.0365 2.9825 44.6248 2.91 45.2342 2.91C46.2843 2.91 47.1 3.1675 47.6814 3.6825C48.2627 4.1975 48.558 4.92 48.5674 5.85V11.13H46.1062V10.215ZM44.5873 9.435C44.2685 9.435 44.0177 9.3525 43.8349 9.1875C43.652 9.0225 43.5606 8.8 43.5606 8.52C43.5606 7.96 43.9122 7.68 44.6154 7.68H46.1062V8.385C46.0312 8.695 45.853 8.9475 45.5718 9.1425C45.2905 9.3375 44.9623 9.435 44.5873 9.435ZM52.5006 0V11.13H49.9972V0H52.5006Z" fill="#1D1D1D"/>
</svg>
